<?xml version="1.0" encoding="UTF-8"?>
<svg id="Layer_2" data-name="Layer 2" xmlns="http://www.w3.org/2000/svg" viewBox="0 0 375.35 375.35">
  <defs>
    <style>
      .cls-1 {
        fill: #0033ad;
      }

      .cls-2 {
        fill: #fff;
      }
    </style>
  </defs>
  <g id="Layer_1-2" data-name="Layer 1">
    <g id="ada">
      <circle class="cls-1" cx="187.67" cy="187.67" r="187.67"/>
      <g id="Layer_2-2" data-name="Layer 2">
        <g id="Layer_1-2" data-name="Layer 1-2">
          <path class="cls-2" d="m120.78,186.69c-.63,10.98,7.82,20.38,18.8,21.01h1.18c11.06,0,19.98-8.92,19.9-19.98,0-11.06-8.92-19.98-19.98-19.9-10.58,0-19.35,8.29-19.9,18.88Z"/>
          <path class="cls-2" d="m46.38,181.55c-3.55-.24-6.63,2.53-6.79,6.08-.16,3.55,2.53,6.63,6.08,6.79,3.55.24,6.56-2.53,6.79-6.08.24-3.55-2.53-6.56-6.08-6.79h0Z"/>
          <path class="cls-2" d="m119.51,70.9c3.16-1.58,4.42-5.53,2.84-8.69-1.58-3.16-5.53-4.42-8.69-2.84-3.16,1.58-4.42,5.45-2.84,8.61,1.58,3.24,5.45,4.58,8.69,2.92-.08,0,0,0,0,0Z"/>
          <path class="cls-2" d="m139.73,106.21c4.9-2.45,6.87-8.45,4.42-13.35-2.45-4.9-8.45-6.87-13.35-4.42-4.9,2.45-6.87,8.45-4.42,13.35,2.45,4.9,8.45,6.87,13.35,4.42Z"/>
          <path class="cls-2" d="m71.65,130.45c3.79,2.45,8.85,1.42,11.37-2.37,2.45-3.79,1.42-8.85-2.37-11.37-3.79-2.45-8.85-1.42-11.37,2.37h0c-2.53,3.79-1.42,8.92,2.37,11.37Z"/>
          <path class="cls-2" d="m83.74,178c-5.53-.32-10.19,3.87-10.5,9.4s3.87,10.19,9.4,10.5c5.53.32,10.19-3.87,10.5-9.4h0c.32-5.45-3.87-10.19-9.4-10.5Z"/>
          <path class="cls-2" d="m72.76,244.89c-4.03,2.05-5.69,6.95-3.63,11.06,2.05,4.03,6.95,5.69,11.06,3.63,4.03-2.05,5.69-6.95,3.63-11.06h0c-2.05-4.03-7.03-5.69-11.06-3.63h0Z"/>
          <path class="cls-2" d="m111.46,157.38c5.45,3.55,12.72,2.05,16.19-3.4,3.55-5.45,2.05-12.72-3.4-16.19-5.45-3.55-12.72-2.05-16.19,3.4-3.55,5.37-2.05,12.64,3.4,16.19h0Z"/>
          <path class="cls-2" d="m234.27,105.42c4.58,3,10.82,1.74,13.82-2.84,3-4.58,1.74-10.82-2.84-13.82-4.58-3-10.82-1.74-13.82,2.84h0c-3.08,4.66-1.82,10.82,2.84,13.82h0Z"/>
          <path class="cls-2" d="m254.65,70.27c3,1.97,6.95,1.11,8.92-1.9,1.97-3,1.11-6.95-1.9-8.92s-6.95-1.11-8.92,1.82c-1.9,3-1.03,7.03,1.9,9h0Z"/>
          <path class="cls-2" d="m235.77,167.65c-10.98-.63-20.46,7.82-21.01,18.8-.63,10.98,7.82,20.46,18.8,21.01h1.11c10.98,0,19.9-8.92,19.9-19.98.08-10.5-8.21-19.27-18.8-19.82h0Z"/>
          <path class="cls-2" d="m146.29,155.96c3.4,6.71,10.27,10.98,17.85,10.98,10.98,0,19.9-8.92,19.9-19.98,0-3.08-.71-6.16-2.13-9-4.98-9.87-16.98-13.82-26.77-8.85-9.87,5.05-13.82,17.06-8.85,26.85h0Z"/>
          <path class="cls-2" d="m302.59,130.45c4.03-2.05,5.61-7.03,3.55-11.06-2.05-4.03-7.03-5.61-11.06-3.55-4.03,2.05-5.61,6.95-3.63,10.98,2.13,4.03,7.03,5.69,11.14,3.63h0Z"/>
          <path class="cls-2" d="m252.04,136.77c-5.77,2.92-8.13,9.95-5.21,15.72,2.92,5.77,9.95,8.13,15.72,5.21,5.77-2.92,8.13-9.95,5.21-15.72-2.92-5.77-9.95-8.06-15.72-5.21Z"/>
          <path class="cls-2" d="m186.88,67.27c4.5.24,8.37-3.24,8.69-7.74s-3.24-8.37-7.74-8.69c-4.5-.24-8.37,3.16-8.69,7.66-.24,4.58,3.24,8.45,7.74,8.77h0Z"/>
          <path class="cls-2" d="m186.8,118.84c6.48.39,12-4.58,12.32-11.06.39-6.48-4.58-12-11.06-12.32-6.48-.39-12,4.58-12.32,11.06-.32,6.48,4.58,12,11.06,12.32h0Z"/>
          <path class="cls-2" d="m123.31,238.57c5.77-2.92,8.13-9.95,5.21-15.72s-9.95-8.13-15.72-5.21c-5.77,2.92-8.13,9.95-5.21,15.72,2.92,5.77,9.95,8.13,15.72,5.21Z"/>
          <path class="cls-2" d="m194.39,135.98c-6,9.24-3.48,21.56,5.77,27.56s21.56,3.48,27.56-5.77c6-9.24,3.48-21.56-5.77-27.56-3.24-2.13-7.03-3.24-10.9-3.24-6.71,0-12.95,3.4-16.66,9Z"/>
          <path class="cls-2" d="m229.06,219.38c-4.98-9.87-16.98-13.82-26.77-8.85-9.87,4.98-13.82,16.98-8.85,26.77,4.98,9.87,16.98,13.82,26.77,8.85h0c9.79-4.9,13.82-16.74,8.92-26.62q0-.08-.08-.16Z"/>
          <path class="cls-2" d="m263.89,217.96c-5.45-3.55-12.72-2.05-16.19,3.4-3.55,5.45-2.05,12.72,3.4,16.19,5.45,3.55,12.72,2.05,16.19-3.4,3.55-5.37,2.05-12.64-3.4-16.19h0Z"/>
          <path class="cls-2" d="m302.11,188.03c.32-5.53-3.87-10.19-9.4-10.5s-10.19,3.87-10.5,9.4,3.87,10.19,9.4,10.5h0c5.45.32,10.19-3.95,10.5-9.4Z"/>
          <path class="cls-2" d="m329.68,180.92c-3.55-.24-6.63,2.53-6.79,6.08s2.53,6.63,6.08,6.79c3.55.24,6.56-2.53,6.79-6.08.16-3.55-2.53-6.56-6.08-6.79Z"/>
          <path class="cls-2" d="m303.69,244.89c-3.79-2.45-8.85-1.42-11.37,2.37-2.45,3.79-1.42,8.85,2.37,11.37,3.79,2.45,8.85,1.42,11.37-2.37,2.53-3.79,1.42-8.92-2.37-11.37h0Z"/>
          <path class="cls-2" d="m120.62,305.07c-3-1.97-6.95-1.11-8.92,1.82-1.97,3-1.11,6.95,1.82,8.92,3,1.97,6.95,1.11,8.92-1.82h0c2.05-2.92,1.18-6.95-1.82-8.92Z"/>
          <path class="cls-2" d="m255.83,304.44c-3.16,1.58-4.42,5.53-2.84,8.69,1.58,3.16,5.53,4.42,8.69,2.84,3.16-1.58,4.42-5.45,2.84-8.61-1.58-3.24-5.45-4.58-8.69-2.92.08,0,0,0,0,0Z"/>
          <path class="cls-2" d="m180.96,239.36c6-9.24,3.47-21.56-5.77-27.64-9.24-6-21.56-3.48-27.64,5.77-6.08,9.24-3.48,21.56,5.77,27.64,3.24,2.13,7.03,3.24,10.9,3.24,6.79.08,13.03-3.32,16.74-9Z"/>
          <path class="cls-2" d="m141.08,269.93c-4.58-3-10.82-1.74-13.82,2.84-3,4.58-1.74,10.82,2.84,13.82,4.58,3,10.82,1.74,13.82-2.84h0c3.08-4.58,1.82-10.82-2.84-13.82Z"/>
          <path class="cls-2" d="m187.59,308.08c-4.5-.24-8.37,3.24-8.69,7.74s3.24,8.37,7.74,8.69c4.5.24,8.37-3.16,8.69-7.66.24-4.58-3.24-8.45-7.74-8.77h0Z"/>
          <path class="cls-2" d="m187.67,256.5c-6.48-.39-12,4.58-12.32,11.06-.39,6.48,4.58,12,11.06,12.32s12-4.58,12.32-11.06c.39-6.4-4.58-12-11.06-12.32h0Z"/>
          <path class="cls-2" d="m235.61,269.14c-4.9,2.53-6.87,8.53-4.34,13.43s8.53,6.87,13.43,4.34c4.9-2.45,6.87-8.45,4.42-13.35-2.53-4.9-8.53-6.95-13.51-4.42h0Z"/>
        </g>
      </g>
    </g>
  </g>
</svg>