<?xml version="1.0" encoding="UTF-8"?>
<svg id="Layer_2" data-name="Layer 2" xmlns="http://www.w3.org/2000/svg" viewBox="0 0 375.35 375.35">
  <defs>
    <style>
      .cls-1 {
        fill: #e84142;
      }

      .cls-2 {
        fill: #fff;
        fill-rule: evenodd;
      }
    </style>
  </defs>
  <g id="Layer_1-2" data-name="Layer 1">
    <g id="avax">
      <circle class="cls-1" cx="187.67" cy="187.67" r="187.67"/>
      <path class="cls-2" d="m134.49,262.36h-36.42c-7.65,0-11.43,0-13.74-1.47-2.49-1.61-4.01-4.29-4.2-7.24-.14-2.72,1.75-6.04,5.53-12.68l89.93-158.51c3.83-6.73,5.76-10.1,8.21-11.34,2.63-1.34,5.76-1.34,8.39,0,2.44,1.24,4.38,4.61,8.21,11.34l18.49,32.27.09.16c4.13,7.22,6.23,10.88,7.14,14.73,1.01,4.2,1.01,8.62,0,12.82-.92,3.87-3,7.56-7.19,14.89l-47.24,83.5-.12.21c-4.16,7.28-6.27,10.97-9.19,13.75-3.18,3.04-7.01,5.26-11.2,6.5-3.83,1.06-8.11,1.06-16.69,1.06Zm91.98,0h52.19c7.7,0,11.57,0,13.88-1.52,2.49-1.61,4.06-4.34,4.2-7.28.13-2.63-1.72-5.82-5.34-12.08-.12-.21-.25-.43-.38-.65l-26.14-44.72-.3-.5c-3.67-6.21-5.53-9.35-7.91-10.56-2.63-1.34-5.72-1.34-8.34,0-2.4,1.24-4.33,4.52-8.16,11.11l-26.05,44.72-.09.15c-3.81,6.58-5.72,9.87-5.58,12.57.18,2.95,1.71,5.67,4.2,7.28,2.26,1.47,6.13,1.47,13.83,1.47Z"/>
    </g>
  </g>
</svg>