<?xml version="1.0" encoding="UTF-8"?>
<svg id="Layer_2" data-name="Layer 2" xmlns="http://www.w3.org/2000/svg" viewBox="0 0 375.35 375.35">
  <defs>
    <style>
      .cls-1 {
        fill: #fff;
      }

      .cls-2 {
        fill: #f0b90b;
      }
    </style>
  </defs>
  <g id="Layer_1-2" data-name="Layer 1">
    <g id="bnb">
      <circle class="cls-2" cx="187.67" cy="187.67" r="187.67"/>
      <g>
        <path class="cls-1" d="m103.14,187.67l.14,49.62,42.17,24.81v29.05l-66.84-39.2v-78.8l24.54,14.51h0Zm0-49.62v28.92l-24.56-14.53v-28.92l24.56-14.53,24.68,14.53-24.68,14.53h0Zm59.91-14.53l24.56-14.53,24.68,14.53-24.68,14.53-24.56-14.53h0Z"/>
        <path class="cls-1" d="m120.89,227.01v-29.05l24.56,14.53v28.92l-24.56-14.39h0Zm42.17,45.5l24.56,14.53,24.68-14.53v28.92l-24.68,14.53-24.56-14.53v-28.92h0Zm84.45-149l24.56-14.53,24.68,14.53v28.92l-24.68,14.53v-28.92l-24.56-14.53h0Zm24.56,113.78l.14-49.62,24.56-14.53v78.8l-66.84,39.2v-29.05l42.15-24.8h0Z"/>
        <polygon class="cls-1" points="254.46 227.01 229.9 241.4 229.9 212.49 254.46 197.96 254.46 227.01"/>
        <path class="cls-1" d="m254.46,148.33l.14,29.05-42.29,24.81v49.75l-24.56,14.39-24.56-14.39v-49.75l-42.29-24.81v-29.05l24.66-14.53,42.03,24.93,42.29-24.93,24.68,14.53h-.11Zm-133.57-49.61l66.72-39.34,66.84,39.34-24.56,14.53-42.29-24.93-42.17,24.93-24.56-14.53h0Z"/>
      </g>
    </g>
  </g>
</svg>