<?xml version="1.0" encoding="UTF-8"?>
<svg id="Layer_2" data-name="Layer 2" xmlns="http://www.w3.org/2000/svg" viewBox="0 0 375.35 375.35">
  <defs>
    <style>
      .cls-1 {
        fill: #f7931a;
      }

      .cls-2 {
        fill: #fff;
      }
    </style>
  </defs>
  <g id="Layer_1-2" data-name="Layer 1">
    <g id="btc">
      <circle class="cls-1" cx="187.67" cy="187.67" r="187.67"/>
      <path class="cls-2" d="m270.34,160.76c3.72-25.07-15.33-38.57-41.33-47.37l8.36-33.91-20.43-5.1-8.36,32.95-16.72-3.72,8.36-32.95-20.43-5.1-8.36,33.91-13-3.25-28.13-6.97-5.57,21.82,14.87,3.72c6,.68,10.34,6.06,9.74,12.07l-23.2,92.46c-.92,2.33-3.72,6.51-9.28,5.1,0,.46-14.87-3.72-14.87-3.72l-10.05,23.71,26.92,6.51,14.87,3.72-8.36,34.15,20.43,5.1,8.36-33.91,16.07,4.18-8.36,33.91,20.43,5.1,8.36-34.15c35.3,6.51,61.28,4.18,72.45-27.87,8.84-25.52-.46-40.18-19.05-50.17,13.94-2.81,23.71-11.61,26.48-30.2l-.22-.02Zm-46.91,66.42c-6.51,25.52-49.22,11.61-63.17,8.36l11.15-45.51c13.94,3.25,58.52,10.05,52.24,37.17l-.22-.02Zm6.51-66.42c-5.57,23.22-41.79,11.61-53.4,8.36l10.05-41.33c11.61,3.25,49.22,8.36,43.2,32.95l.16.02Z"/>
    </g>
  </g>
</svg>