<?xml version="1.0" encoding="UTF-8"?>
<svg id="Layer_2" data-name="Layer 2" xmlns="http://www.w3.org/2000/svg" viewBox="0 0 375.35 375.35">
  <defs>
    <style>
      .cls-1 {
        fill: #fcc136;
      }

      .cls-2 {
        fill: #fff;
        fill-rule: evenodd;
      }
    </style>
  </defs>
  <g id="Layer_1-2" data-name="Layer 1">
    <g id="dai">
      <circle class="cls-1" cx="187.67" cy="187.67" r="187.67"/>
      <path class="cls-2" d="m116.5,99.3h71.49c43.49,0,76.45,23.37,88.71,57.38h22.27v20.56h-17.59c.34,3.25.52,6.56.52,9.92v.51c0,3.79-.22,7.51-.66,11.15h17.72v20.56h-22.7c-12.59,33.54-45.29,56.68-88.29,56.68h-71.49v-56.68h-24.84v-20.56h24.84v-21.57h-24.84v-20.56h24.84v-57.38h0Zm19.99,120.07v38.25h51.5c31.78,0,55.39-15.32,66.39-38.25h-117.89Zm124.02-20.56h-124.02v-21.57h124.05c.46,3.39.7,6.88.7,10.42v.51c0,3.63-.25,7.19-.73,10.65Zm-72.51-81.11c31.93,0,55.62,15.73,66.54,38.98h-118.04v-38.98h51.5Z"/>
    </g>
  </g>
</svg>