<?xml version="1.0" encoding="UTF-8"?>
<svg id="Layer_2" data-name="Layer 2" xmlns="http://www.w3.org/2000/svg" viewBox="0 0 375.35 375.35">
  <defs>
    <style>
      .cls-1 {
        fill: none;
      }

      .cls-2 {
        fill: #988430;
      }

      .cls-3 {
        fill: #ba9f33;
      }

      .cls-4 {
        fill: #7a6a2a;
      }

      .cls-5 {
        fill: rgba(255, 255, 255, .8);
      }

      .cls-5, .cls-6, .cls-7, .cls-8, .cls-9, .cls-10, .cls-11, .cls-12, .cls-13, .cls-14, .cls-15, .cls-16, .cls-17, .cls-18, .cls-19, .cls-20, .cls-21, .cls-22, .cls-23, .cls-24, .cls-25, .cls-26, .cls-27, .cls-28, .cls-29, .cls-30, .cls-31, .cls-32, .cls-33, .cls-34, .cls-35, .cls-36, .cls-37, .cls-38, .cls-39, .cls-40, .cls-41, .cls-42, .cls-43, .cls-44, .cls-45, .cls-46, .cls-47, .cls-48, .cls-49, .cls-50, .cls-51, .cls-52, .cls-53, .cls-54, .cls-55, .cls-56, .cls-57, .cls-58, .cls-59, .cls-60, .cls-61, .cls-62, .cls-63, .cls-64, .cls-65, .cls-66, .cls-67, .cls-68, .cls-69, .cls-70, .cls-71, .cls-72, .cls-73, .cls-74, .cls-75, .cls-76, .cls-77, .cls-78, .cls-79, .cls-80, .cls-81, .cls-82, .cls-83, .cls-84, .cls-85, .cls-86, .cls-87, .cls-88, .cls-89, .cls-90, .cls-91, .cls-92, .cls-93, .cls-94, .cls-95, .cls-96, .cls-97, .cls-98 {
        fill-rule: evenodd;
      }

      .cls-6 {
        fill: #f7f7e7;
      }

      .cls-7 {
        fill: #f8f6de;
      }

      .cls-8 {
        fill: #f2e8b0;
      }

      .cls-9 {
        fill: #f3e19d;
      }

      .cls-10 {
        fill: #2d2816;
      }

      .cls-11 {
        fill: #2d2815;
      }

      .cls-12 {
        fill: #39331f;
      }

      .cls-13 {
        fill: #574f35;
      }

      .cls-14 {
        fill: #585136;
      }

      .cls-15 {
        fill: #84754b;
      }

      .cls-16 {
        fill: #292311;
      }

      .cls-17 {
        fill: #82764f;
      }

      .cls-18 {
        fill: #543e26;
      }

      .cls-19 {
        fill: #3f3824;
      }

      .cls-20 {
        fill: #453a25;
      }

      .cls-21 {
        fill: #6e6342;
      }

      .cls-22 {
        fill: #6f674d;
      }

      .cls-23 {
        fill: #252211;
      }

      .cls-24 {
        fill: #d8c173;
      }

      .cls-25 {
        fill: #ac8132;
      }

      .cls-26 {
        fill: #dec270;
      }

      .cls-27 {
        fill: #e2cc85;
      }

      .cls-28 {
        fill: #e2d59d;
      }

      .cls-29 {
        fill: #c89d3a;
      }

      .cls-30 {
        fill: #e0cd81;
      }

      .cls-31 {
        fill: #d6bc6f;
      }

      .cls-32 {
        fill: #ac924c;
      }

      .cls-33 {
        fill: #d3ae4d;
      }

      .cls-34 {
        fill: #d4c38b;
      }

      .cls-35 {
        fill: #d4b968;
      }

      .cls-36 {
        fill: #d5b457;
      }

      .cls-37 {
        fill: #dcba5a;
      }

      .cls-38 {
        fill: #dfc677;
      }

      .cls-39 {
        fill: #dfc57c;
      }

      .cls-40 {
        fill: #cfb66c;
      }

      .cls-41 {
        fill: #caa13e;
      }

      .cls-42 {
        fill: #c3b378;
      }

      .cls-43 {
        fill: #cca847;
      }

      .cls-44 {
        fill: #cca849;
      }

      .cls-45 {
        fill: #ccb360;
      }

      .cls-46 {
        fill: #c49937;
      }

      .cls-47 {
        fill: #c4a859;
      }

      .cls-48 {
        fill: #e2c270;
      }

      .cls-49 {
        fill: #dfc068;
      }

      .cls-50 {
        fill: #d2b257;
      }

      .cls-51 {
        fill: #d2ba6b;
      }

      .cls-52 {
        fill: #d2c281;
      }

      .cls-53 {
        fill: #d2a83e;
      }

      .cls-54 {
        fill: #d2b159;
      }

      .cls-55 {
        fill: #cba94c;
      }

      .cls-56 {
        fill: #cbac5a;
      }

      .cls-57 {
        fill: #cbaf59;
      }

      .cls-58 {
        fill: #c99e3d;
      }

      .cls-59 {
        fill: #cdae50;
      }

      .cls-60 {
        fill: #c0993a;
      }

      .cls-61 {
        fill: #c39d3c;
      }

      .cls-62 {
        fill: #d7bc6b;
      }

      .cls-63 {
        fill: #be9c44;
      }

      .cls-64 {
        fill: #a88f33;
      }

      .cls-65 {
        fill: #a67a2e;
      }

      .cls-66 {
        fill: #ceb052;
      }

      .cls-67 {
        fill: #b18e3e;
      }

      .cls-68 {
        fill: #d8b65b;
      }

      .cls-69 {
        fill: #92723a;
      }

      .cls-70 {
        fill: #685026;
      }

      .cls-71 {
        fill: #806031;
      }

      .cls-72 {
        fill: #9f8e57;
      }

      .cls-73 {
        fill: #927d49;
      }

      .cls-74 {
        fill: #b59544;
      }

      .cls-75 {
        fill: #b6903c;
      }

      .cls-76 {
        fill: #8c6228;
      }

      .cls-77 {
        fill: #c2a44d;
      }

      .cls-78 {
        fill: #a17c34;
      }

      .cls-79 {
        fill: #b6933f;
      }

      .cls-80 {
        fill: #c29637;
      }

      .cls-81 {
        fill: #b58634;
      }

      .cls-82 {
        fill: #f1d789;
      }

      .cls-83 {
        fill: #ecd592;
      }

      .cls-84 {
        fill: #e5cb7a;
      }

      .cls-85 {
        fill: #e9ce77;
      }

      .cls-86 {
        fill: #e3c571;
      }

      .cls-87 {
        fill: #e3c677;
      }

      .cls-88 {
        fill: #ebcc73;
      }

      .cls-89 {
        fill: #f5eec0;
      }

      .cls-90 {
        fill: #f4ecb4;
      }

      .cls-91 {
        fill: #f4efc8;
      }

      .cls-92 {
        fill: #eac970;
      }

      .cls-93 {
        fill: #e6d89c;
      }

      .cls-94 {
        fill: #e6c367;
      }

      .cls-95 {
        fill: #e6bd62;
      }

      .cls-96 {
        fill: #e6db9d;
      }

      .cls-97 {
        fill: #e5c66b;
      }

      .cls-98 {
        fill: #e5cc7c;
      }
    </style>
  </defs>
  <g id="Layer_1-2" data-name="Layer 1">
    <g id="doge">
      <g id="Layer_1-2" data-name="Layer 1-2">
        <g id="Layer_1-3" data-name="Layer 1-3">
          <circle class="cls-2" cx="187.67" cy="187.67" r="187.67"/>
          <circle class="cls-4" cx="187.67" cy="187.67" r="181.66"/>
          <circle class="cls-3" cx="187.67" cy="187.67" r="177.83" transform="translate(-77.74 187.67) rotate(-45)"/>
          <path class="cls-40" d="m82.05,167.63c-1.06-.97-2.19-1.94-3.22-2.91-1.03-.97-2.09-1.94-3.16-2.91l-3.16-3c-.52-.52-1.06-.97-1.58-1.49-.52-.45-1.12-.97-1.64-1.43-4.19-3.98-8.41-7.96-12.54-11.93,4.28,3.92,8.47,7.81,12.76,11.78l1.49,1.49c.52.51,1.06.97,1.58,1.49l3.16,2.91c1.06.97,2.1,1.94,3.16,3,1.06,1.06,2.1,2.03,3.16,3h0Zm-55.63-.6s15.24,1.58,22.68,2.64c6.89.97,28.45,4.28,28.45,4.28l-51.14-6.92Zm0,0c4.28.36,8.56.82,12.85,1.28,2.19.21,4.28.45,6.38.67l3.22.37c1.06.15,2.1.3,3.16.45l12.76,2.03,6.38,1.06c2.1.36,4.19.76,6.38,1.13-2.1-.21-4.28-.52-6.38-.82l-6.38-.91-12.76-1.88c-1.06-.15-2.1-.37-3.16-.52l-3.22-.37c-2.1-.21-4.28-.52-6.38-.76-4.28-.51-8.56-1.06-12.85-1.73h0Zm49.62,10.89s-16.28,4.13-21.77,5.71c-5.4,1.49-21.77,6.47-21.77,6.47l43.55-12.18h0Z"/>
          <path class="cls-40" d="m76.04,177.92c-3.61,1.06-7.21,2.1-10.87,3.07l-10.87,2.91c-3.61,1.06-7.21,2.1-10.81,3.16l-5.41,1.49c-1.79.52-3.61.97-5.46,1.49,1.79-.6,3.61-1.22,5.4-1.73l5.4-1.73c3.61-1.12,7.21-2.19,10.81-3.31,3.67-.91,7.29-1.88,10.96-2.76,3.49-.88,7.17-1.76,10.84-2.58h0Zm-41.27,22.2c1.79-.67,22.44-10.29,27.24-12.54,2.4-1.13,9.38-3.6,9.38-3.6l-36.62,16.14Z"/>
          <path class="cls-40" d="m34.77,200.12c1.58-.6,3.07-1.34,4.58-2.03l4.49-2.1,9.02-4.34c3-1.43,5.92-3,9.02-4.34,1.58-.67,3.16-1.21,4.74-1.73l2.4-.76c.82-.21,1.58-.46,2.4-.67-3,1.43-6.16,2.64-9.17,4.04-3,1.49-6.07,2.7-9.17,4.04l-9.17,4.04c-3.08,1.25-6.08,2.58-9.15,3.86h0Zm2,8.41s18.71-10.96,25.14-14.49c3.37-1.88,14.27-7.29,14.27-7.29l-39.42,21.77Z"/>
          <path class="cls-40" d="m36.78,208.54c3.16-1.94,6.38-3.92,9.59-5.92l4.8-2.92c1.64-.97,3.22-1.88,4.89-2.85,1.64-.97,3.22-1.94,4.89-2.85.79-.49,1.63-.92,2.49-1.28l2.55-1.28c3.37-1.64,6.74-3.31,10.3-4.74-3.22,2.04-6.53,3.77-9.84,5.56-1.64.91-3.31,1.73-4.95,2.64-1.64.91-3.22,1.88-4.89,2.76-1.64.97-3.22,1.88-4.89,2.76l-4.95,2.7-9.99,5.4h0Zm39.26-19.38s-11.63,8.93-15.4,11.78c-3.77,2.85-14.85,10.87-14.85,10.87l30.25-22.65Z"/>
          <polygon class="cls-27" points="142.79 261.16 136.84 249.9 140.3 235.81 164.99 226.27 154.48 204.71 159.67 182.94 169.42 163.44 199.55 158.7 221.68 137.6 269.48 141.21 278.87 192.32 260.8 256.67 250.5 289.98 208.78 291.56 189.4 278.14 166.72 268.66 142.79 261.16"/>
          <path class="cls-82" d="m215.98,260.8s-5.77,2.64-15.61,2.03c-2.85-3.83-22.8-5.62-22.8-5.62,0,0-2.49-.76-6.89,1.06-4.43,1.8-8.62,1.58-12.54,2.55s-7.81-4.13-10.81-5.19c-3-1.12-6.98-3.83-6.98-3.83l-8.41-.82-16.88-7.14-26.82-26.72-7.29,11.41-2.25,14.12,8.11,16.73,21.83,19.89,42.58,10.81,25.24-7.43,31.61-13.36,7.93-8.5h0Z"/>
          <polygon class="cls-90" points="64.71 166.36 70.12 149.99 76.56 139.42 97.3 137.69 91.07 155.85 73.73 186.7 80.93 214.25 68.18 220.62 64.26 214.61 61.1 200.82 60.89 185.33 64.71 166.36"/>
          <path class="cls-9" d="m87.97,259.68l-3.98-5.56s-1.06-2.64-.45-4.95c.6-2.34.51-2.49.21-3.37-.3-.88-2.85-3.92-2.7-6.53.15-2.64-.21-3.52,1.73-5.62,2.03-2.03,1.43-5.56,1.43-5.56l2.64,1.64.6-.91s.97.76.97,1.94c.21-1.64-.67-9.23,1.34-10.96s5.56,8.11,5.56,8.11l-2.19-14.27-5.62-14.64-9.99-13.36-.6-14.73v-1.28s-4.59,7.05-5.86,12.61c-.91,3.83,1.28,8.47.82,13.97-.37,5.47-.82,5.04.51,7.21s4.59,6.62,3.31,9.84c-1.12,2.76-4.95.82-4.95.82,0,0-.76,2.25-1.79,3.07-.36-1.34-.76-2.19-1.49-3-.06.52-.21,1.22-.21,1.22,0,0-.67-2.1-1.34-4.74-.91-3.52-1.88-8.17-2.76-10.66-.36,1.43-1.28,5.77-1.28,5.77l.52,6.68,2.49,9.17,2.4,6.01,2.34,7.35,2.03,4.94,1.64,3.77,1.43,8.47,6.89,7.29,3.68,1.64,2.67-1.37h0Z"/>
          <path class="cls-8" d="m68.33,152.99s-4.95,8.41-6.38,16.88c-1.43,8.48-2.7,17.43-1.8,28.97.91,11.63,2.64,18.77,4.04,23.87,2.4,8.47,8.62,20.26,8.62,20.26l.21-.46c-1.05-1.98-1.88-4.07-2.49-6.23-.82-3.22-1.12-7.04-1.88-8.78-.67-1.73-1.79-3.22-2.34-5.34-.52-2.03-.6-5.25-2.19-7.65-.67-.97-1.49-3.52-1.73-6.07-.3-3.83.15-8.11-.21-11.63-.67-5.86-1.12-9.84-.52-12.91.61-3.07,3.77-11.78,5.71-18.71,1.28-4.43.51-8.17,2.85-12.03,2.34-3.83,3.77-7.2,4.28-9.53.6-2.13-6.19,9.35-6.19,9.35h0Z"/>
          <path class="cls-89" d="m91.8,149.62s-2.55.76-3.77,2.1c-1.22,1.28-1.73,2.34-3.37,4.49s-1.73,3.92-3.07,6.62c-1.34,2.64-4.28,6.62-4.65,8.05s-.97,8.11-1.73,11.27c-.67,3.16.76,7.05.76,7.05l1.73-.37s0,2.25,1.73,3.77c1.73,1.49,2.03-5.04,2.03-5.04l6.47-21.83,9.75-6.62,1.06-5.34-6.95-4.13h0Z"/>
          <path class="cls-96" d="m96.54,159.52s-4.59.3-6.83,1.94c-.91.67-1.28,1.21-2.25,2.03-1.79,1.49-3.62,2.85-4.49,4.8-.97,1.94-2.04,4.89-2.76,10.45-.3,2.34-.3,4.49-.52,6.38-.3,2.55-.76,4.58-.52,6.01.3,2.91,3.31,4.43,3.6,7.74l6.23-3.16,5.86-23.11,12.45-7.81-7.05-7.9-3.73,2.6h0Z"/>
          <path class="cls-84" d="m63.69,315.15c.03-.23.05-.46.08-.69.91-7.81,1.06-13.72,1.73-17.43.97-5.25,1.64-7.21,1.49-9.17-.21-3.16-.45-5.47-.15-7.9.45-3.22,3.61-7.04,3.52-9.69-.06-2.1-1.12-3.46-2.04-4.74-.91-1.28-1.64-2.34-1.64-2.34,0,0,6.23-4.28,6.17-21.53.13.04.25.09.36.15l3.07,8.71,2.1,2.55,8.05,15,10.36,10.05,15.3,10.29,9.6,10.44.97,27.85-12.54,16.28-2.05,3.72c-16.32-8.19-31.28-18.84-44.37-31.57h0Z"/>
          <path class="cls-24" d="m102.01,341.79s.21-3.46,3.07-5.71c.46.76.76,1.49.67,2.03.52-.91,4.13-6.74,12.3-8.26,8.17-1.49,10.14-7.44,10.14-7.44l17.34-15.76,19.83-18.25,24.11-8.47,11.27-2.76s.21.82-.21,2.64c2.09-.15,6.74-1.21,11.57-2.91,1.94-.76,3.77-1.06,4.74-.06,1.43,1.34,1.64,4.49,1.73,6.38,2.34-.52,5.04-2.76,7.21-2.55,3.46.36,6.53,4.43,10.05,4.43,4.65,0,6.74-2.85,9.99-5.1,1.94-1.34,4.74-3,6.32-4.13,3.77-2.76,43.61-14.94,43.61-14.94l13.97.91,2.25,15-1.2,39.22c-.15.14-.3.29-.45.43l-63.51,33.17-88.04,13.5c-19.72-3.22-38.75-9.77-56.28-19.36l-.45-2h0Z"/>
          <path class="cls-82" d="m69.03,320.14c1.25-2.62,2.38-4.8,2.57-5.59.16,1.58.44,5.04,1.02,8.72-1.21-1.03-2.41-2.07-3.59-3.13h0Z"/>
          <path class="cls-30" d="m133.35,357.04l11.39-3.17.97.3s.52.3.52,1.34c1.43-.82,2.64-.67,3.52-1.21.45.97.91,4.19,2.91,4.58,2.09.46,4.34-.91,6.62-2.64,2.25-1.79,4.8-4.04,6.74-4.95.71,1.31,1.34,2.65,1.88,4.04,2.55-2.03,6.98-10.29,13.3-10.14,1.83-4.31,4.88-8,8.77-10.6,5.86-3.98,9.53-4.28,14.12-3.92,1.82-2.37,4.07-4.37,6.62-5.92.76.3,2.85,1.58,5.47.36,2.64-1.21,5.62-5.92,9.53-6.53,2.11-.29,4.26.16,6.07,1.28,0,0,11.41-11.33,19.28-15.09-.3-.91-.91-4.34,8.32-11.94.52.46.15,1.73.52,1.8.15,0,2.4-.97,5.25-3.16,3.52-2.64,7.74-5.41,10.29-6.16,4.8-1.43,9.9,1.49,9.9,1.49.43-.3.92-.53,1.43-.67,1.21-.21,2.09-.36,2.76-.6-.06,1.58.82,4.28,0,6.62.95.53,1.96.96,3,1.28-.51,1.12-1.64,3.98-3.52,5.34,1.58.76,1.79,1.64,4.04,2.4-.91,1.28-2.4,3.46-3.07,4.8-.67,1.43-3.07,7.35-4.13,9.59-1.12,2.25-2.64,6.38-3.37,7.21-.73.83-3.37,4.34-5.4,6.07,1.8-.67,9.17-2.91,12.3-3.77-.93,1.37-5.65,8.37-10.19,15.1-43.94,26.33-97.08,32.49-145.87,16.89v-.03Z"/>
          <path class="cls-39" d="m97.29,158.7s-2.64,0-3.16.36c-.52.36,2.64,1.13,3.61,1.49s3.07,2.03,3.61,3.37c.52,1.28,18.98,8.71,18.98,8.71l13.06-.67,4.5-6.22-8.56-7.5,6.01-17.7-7.96,1.28-19.13,11.41-9.6,3.68-1.37,1.79h0Z"/>
          <path class="cls-98" d="m125.97,164.56c.38.62,1.07.99,1.8.97,2.7,0,5.19.67,6.22,2.03,1.73,2.19,6.53,9.17,6.53,9.17l11.48,4.13.74-13.52-12.54-8.71-14.27,5.25v.67h.04Z"/>
          <path class="cls-52" d="m123.71,169.57s2.09.15,4.74-.82,6.98-3.07,8.87-2.25c2.64,1.12,2.09,4.65,4.95,7.81,1.73,1.94,4.89,1.88,6.68,3.98,1.79,2.1,7.96,1.12,7.96,1.12l2.34,12.61-9.38,12.03-3.07,14.94h-12.69l-11.59-4.6-5.71-13.81,2.85-13.97,4.06-17.04h0Z"/>
          <path class="cls-48" d="m148.26,170.18c.31.1.64.15.97.15-.36.3-1.12.97-.82,2.7.3,1.73,1.28,3.92.46,5.25.65.71,1.14,1.57,1.43,2.49.52,1.49.67,2.85,4.04,3.07-.49.3-.93.66-1.34,1.06,0,0,2.34,2.03,3.52,3.92,1.21-.05,4.43-1.05,4.43-1.05l.67.46,1.43-.6s-1.34-.52-.36-3.77c.91-2.85,1.73-2.7,1.8-2.91.07-.21.67-3.22.67-4.43.45-1.58.82-6.38.82-6.38l-.97-10.6-5.47-3.31-4.44-4.29-4.19,7.9-2.76,2.75-.21,6.83.33.76h0Z"/>
          <path class="cls-45" d="m161.4,161.31s.97,2.76,1.34,4.89c.13-.41.2-.84.21-1.28,0,0,.76,4.19.91,5.92.3-.06.6-.15.67.15s.76,3.68.6,5.56c1.26-2.09,3.01-3.84,5.1-5.1,1.22-.76,2.64-1.58,4.13-1.64,2.34-.06,4.04,1.49,6.83,1.49,6.74,0,12.85-4.95,17.34-6.47,3.31-1.12,6.16-1.94,8.17-3.77.97-.82,2.7-2.64,4.28-5.35,2.1-3.6,4.28-6.74,6.47-7.13-.99.18-2,.25-3,.21,0,0,.67-.67,1.8-1.58,1.13-.91,2.49-2.03,4.43-2.03,3.46,0,5.19.51,7.14.51,1.94-.06,3.07-.51,3.07-.51,0,0,2.04,1.43,6.62,1.43,4.59.06,7.65.45,10.05.67s10.45-.67,12.75-.6c1.5.06,2.98.42,4.34,1.06l-7.44-21.62-26.73-23.36-15.91,11.27-24.48,24.48-23.69,8.78-4.95,5.56v8.47h-.06Z"/>
          <path class="cls-36" d="m214.55,148.92s.67-.67,1.79-1.58c1.12-.91,2.49-2.04,4.43-2.04,3.46,0,5.19.52,7.14.52,1.94-.06,3.07-.52,3.07-.52,0,0,2.04,1.43,6.62,1.43,4.59.06,7.65.45,10.05.67s10.45-.67,12.75-.6c1.5.06,2.98.42,4.34,1.06l-3.37-9.75-3.92-7.44-11.18-12.24s-13.41-7.9-13.51-7.96c-.06-.06-4.65-1.28-4.65-1.28l-12.15,7.35-11.02,28.52-.21,6.01,7.13,3.37c1.79-3,3.77-5.41,5.62-5.71-1.67.18-2.95.18-2.95.18h0Z"/>
          <path class="cls-50" d="m214.4,150.96c-1.06.06-1.94-.15-2.19-.91-.91-2.55-1.64-2.91-2.4-2.91s-1.79,1.64-2.4,1.79c-.61.15-1.34-1.88-1.34-1.88l-.67-.3s-3.92,2.55-6.68,5.56c-2.76,3.01-7.29,8.11-9.32,9.02-2.03.91-9.02,1.22-11.41,1.73-2.39.52-5.04,2.25-5.41,2.64s1.07.82,1.28,1.21c.21.36-2.34.21-2.55.6-.15.3.6,2.03.97,2.91.65-.32,1.37-.5,2.09-.52,2.34-.06,4.04,1.49,6.83,1.49,6.74,0,12.85-4.95,17.34-6.47,3.31-1.12,6.17-1.94,8.17-3.77.97-.82,2.7-2.64,4.28-5.34,1.15-1.85,2.28-3.58,3.4-4.86h0Z"/>
          <path class="cls-54" d="m117.71,301.25s-.6-2.25-6.17-8.05c-1.58-1.64-2.55-3-3.61-3.98-2.64-2.49-4.19-3.16-6.07-4.59-4.13-3.07-8.62-3.07-12.09-6.83s-7.49-10.96-10.3-18.31c-2.76-7.35-3.52-9.69-3.52-9.9s.76-1.64,1.73-1.43.97,2.09,1.22,2.55c.48.74,1.03,1.45,1.64,2.09,1.43,1.64,3.46,3.6,4.49,6.53-.21-2.49-1.06-5.25-1.06-5.25,0,0,5.34,3.37,9.9,6.89,4.59,3.52,6.47,4.74,7.81,6.98,1.34,2.25,4.49,8.17,6.01,9.9,1.51,1.73,22.22,8.26,22.22,8.26l9.85,7.34,4.89,10.72-3.83,6.01-7.35,1.58-11.94-5.34-3.82-5.18h0Z"/>
          <path class="cls-77" d="m91.19,264.32s2.49,3.98,8.56,7.74c5.47,3.31,14.12,6.32,21.84,8.11,4.43,1.06,8.87,1.88,12.84,1.94,10.72.15,18.1-2.91,27.24-3.92,4.95-.52,11.02-.91,17.34-2.4,8.11-1.94,12.91-4.13,19.44-7.21,4.74-2.19,9.08-3.83,12.6-5.92,4.95-2.91,8.56-6.16,12.76-7.13-.52,1.43-1.06,3.98-5.19,6.62,2.19-.06,5.19-.21,5.19-.21,0,0-2.91,1.73-8.05,5.62-3.16,2.4-7.35,6.47-11.63,9.17-2.76,1.73-5.77,3-7.75,4.04-4.8,2.64-6.74,3.98-9.9,7.21,1.12-.06,1.22,0,1.22,0,0,0-3.98.52-6.83,2.03-.6,0-1.64-.21-3.46.3-1.43.45-3.31,1.49-5.25,2.03-2.76.82-3.67.46-3.67.46l.45.91s-3.6-.06-4.8.06c.21.06.15.15.15.15-.21.04-.41.11-.6.21-.58.37-1.21.65-1.88.82-.36.06-.67.06-1.12.15.15.36,1.34,2.4,1.88,3.6-.45.3-7.29,5.47-7.29,5.47.21.33.39.69.52,1.06.21.67.3,1.64.52,2.09.51.91.82,1.06.82,1.06,0,0-.82.15-2.25.52-1.21.3-2.7.82-4.8,1.12-.64.08-1.29.13-1.94.15.3.67,1.64,3.22-.82,6.16-2.46,2.94-3.22,3.37-3.98,5.25-.38-.29-.79-.54-1.22-.76-.82-.36-1.94-.91-2.34-1.64-.23.97-.53,1.93-.91,2.85-.76,2.03-1.88,4.04-2.09,5.56-.82-.91-2.34-2.7-4.43-2.34-2.1.36-3.77,3.22-4.13,4.04,0-.52-.36-.91-.45-.3-.06.67-1.22,7.65-7.65,13.3-.06-1.43-.06-4.59-.21-5.62-.6.6-1.34,1.49-5.71,3.37-4.28,1.88-3.6,3.77-3.6,3.77,0,0-.36-3,1.94-6.17,2.34-3.16,3.77-4.65,3.77-4.89-.04-.25-.14-.48-.3-.67-.3-.3-.91-.67-.91-.91.36-.15,3.98-1.88,3.77-5.47-.21-3.22-1.58-4.89-2.55-6.07-.15-.15,1.43-1.28,1.22-1.64-.15-.21-2.09-1.64-2.34-2.4.06-.45.16-.9.3-1.34.21-.67.36-1.12.3-1.58-.15-.76-.97-2.85-1.22-3.07.21.06,1.73,0,1.73,0,0,0-1.21-1.94-1.43-2.85-.21-.91-.67-3.31-.91-3.77.52.06,1.79.15,1.79,0,.06-.46-1.12-1.22-.6-1.8.36.06,1.06.36,1.73,1.22-.36-.97-.97-2.85-2.25-3.61.6-.21,2.64-.76,4.43.3,1.79,1.06,2.4,2.55,2.4,2.55,0,0,1.06.82,2.7,2.04,1.88,1.49,4.28,3.6,8.11,5.1.82.46,2.91.46,4.43.15.66-.16,1.3-.41,1.88-.76.21-.12.44-.23.67-.3-.33-.66-.7-1.28-1.12-1.88.52,0,1.12.06,1.12.06,0,0,.36-.82-1.28-2.4.36-.36.82-.6.82-1.22-.52-.06-1.43-.82-1.64-1.12.3-.21.76-.91,1.28-1.12-.46-.36-1.58-1.88-2.1-2.03.49-.18.97-.41,1.43-.67,0,0-2.55-.67-3.37-1.22-.82-.6-2.03-1.64-2.76-1.94-.76-.3-2.1-.45-2.64-1.06.51.15,1.34,0,1.94,0,.45,0,.67.06.82.06-.06-.21-.06-.67,1.12-.82.57-.09,1.12-.26,1.64-.52,0,0-1.12-.06-2.4-1.28-1.28-1.22-2.34-2.19-3.07-2.34-.76-.15-2.19.52-3.07.45-1.22-.15-1.73-.76-1.73-.76,0,0-4.04.36-13-5.1-7.75-4.74-11.12-8.93-11.12-8.93-.72-.26-1.43-.59-2.09-.97-2.91-1.52-6.95-4.68-6.83-8.81h0l-.02.03Z"/>
          <path class="cls-41" d="m202.92,82.05c.7.23,1.33.65,1.8,1.22,1.43,1.64,2.34,4.74-.91,8.05,1.28.45,1.8.6,2.91.45-1.12,1.34-3.67,4.19-3.83,6.68-.15,2.03,1.12,2.64,1.12,2.64,0,0-1.94,2.25-2.03,6.01.92-1.04,1.92-1.99,3-2.85,2.25-1.79,5.34-3.83,7.44-5.1-.03.53.04,1.07.21,1.58,0,0,3.92-3.22,7.21-1.79,1.49.67.82,2.76.82,2.76,0,0,2.04-.76,3.46.67,1.43,1.43,3.45,5.11,4.48,6.54.45.67,1.64,1.94,2.85,3.92,1.66,2.76,3.04,5.68,4.13,8.71.06-1.58.45-4.04,4.95-2.49,4.49,1.58,9.59,4.89,13.88,11.41s5.34,13.88,7.5,16.68c2.19,2.7,4.43,7.2,4.59,9.08.15,1.88-.67,7.96,3.83,24.38,1.28-5.1,3.22-16.43,3.22-16.43l1.06-9.99,1.22-30.91-32.28-26.82-25.24-18.31-16.43,1.58,1.03,2.34h0Z"/>
          <path class="cls-74" d="m262.89,128.06s-.46-3-8.05-8.11c-7.59-5.04-13.51-5.04-18.98-9.32-4.19-3.37-8.56-11.12-11.41-13.67-2.76-2.52-3.22-9.81-3.22-9.81l9.32-7.81,13.86-20.04,11.72-12.91,5.62,7.81,7.81,9.17,4.34,18.4,1.58,26.94-12.61,19.34h.01Z"/>
          <path class="cls-29" d="m272.28,160.35c.23-4.09-.27-8.18-1.49-12.09-2-6.23-6.38-17.28-8.41-21.42-.82-4.59-.21-4.95.67-5.47.88-.52,4.19-2.4,6.01-9.02s7.44-6.83,7.44-6.83l3.46-2.55,5.25,13.15,4.58,11.87,1.43,9.08,1.06,7.74-2.49,16.37-12.3,11.11-5.22-11.96h0Z"/>
          <path class="cls-66" d="m100.67,342.79v-.34c.26-.16.48-.36.67-.6.21-.3.37-.67.52-.76.3-.15,1.73-.6,2.49-.46s2.76.97,3.83.91c2.19-.06,4.74-1.73,8.78-.97,6.07,1.12,7.5,5.25,11.02,7.59,2.4,1.64,4.89.91,5.25.91h.82c.15,0,1.28-1.28,1.88-1.21,1.22.06,1.34,1.06,2.09,1.12,1.79.21,5.25-.91,6.99-.45,1.04.33,1.86,1.14,2.19,2.18.36,1.12.06,2.55-.82,3.37-1.88,1.73-3.67,3.37-4.04,4.8.46.35.91.73,1.33,1.13-15.03-3.83-29.48-9.62-43-17.22v-.02Z"/>
          <path class="cls-43" d="m262.38,282.12s4.74-6.32,6.38-9.44c1.64-3.23-5.19-44.06-5.19-44.06l13.73-44.97-.37-14.64s.67-13.51,2.25-19.38c1.88,3.37,7.75,7.44,9.02,9.6.6-4.13,2.64-12.85,2.34-22.14,1.12,1.73,3.83,19.13,3.83,19.13l2.7,11.72,3.52,12.45,3.92,13.15,2.34,9.08,1.34,2.19,1.12,3.83,1.06,4.13,3.07,9.69,1.8,7.96,1.43,14.43c.31,1.1.53,2.23.67,3.37.06,1.58-.21,2.49-.21,2.76s.52,3.46.3,5.86c-.3,2.4-.3,4.28-2.19,6.01-1.88,1.72-3.07,12.03-3.07,12.03l-3.37-2.25s.67-3.07-.91-5.86-4.65-3.37-6.38-2.91c-1.73.36-5.19.91-6.32,1.88-1.06.97-3.67,3.98-6.07,5.35-3,1.8-7.9,1.94-10.51,2.55-2.64.6-5.56,2.4-8.63,4.49-2.41,1.56-4.95,2.9-7.59,4h-.01Z"/>
          <path class="cls-61" d="m262.38,348.47s.2.13.59.34c21.57-10.11,40.91-24.44,56.85-42.14-.17-6.15-.4-12.45-.65-14.78-.51-4.95-.15-9.99-.3-12.91-.15-2.91-1.79-14.79-2.55-17.86-.82-3.07-2.4-4.59-2.64-4.59-.21.06-1.49,5.77-1.49,7.21s-.3,4.89-.3,5.77c-.21-.06-.3-.6-.3-.82-.3.76-.67,2.1-.82,2.25-.15.15.21-1.28,0-1.58s-.6-.15-.52-.91c.04-.45.11-.9.21-1.34,0,0-.91,1.34-1.58,4.74-.67,3.37-.67,3.46-.91,3.77-.21.37-1.43,1.58-1.49,2.04-.06.82,1.12,1.64,1.22,2.09.06.76-1.06,4.28-1.43,6.01-.36,1.72-.21,5.1-.6,6.83-.3,1.58-.6,2.49-1.64,3.16.76.15,1.49.36,1.49.36,0,0,1.06,4.49-1.64,8.32-.97,1.34-1.21,1.94-2.25,3.16-2.04,2.25-3.62,4.8-3.77,6.47-.11-.49-.18-.99-.21-1.49,0,0-3.16,3.68-4.49,5.77-1.73,2.7-4.13,2.55-4.8,3.22-.67.67-.82,1.88-.6,2.85-.6.15-1.73.36-2.49,2.7-.36,1.21-1.28,2.4-2.7,3.22-1.43.82-3.16,1.06-4.04,1.28.76.21,1.06.21,1.43.45-.45.76-2.55,1.94-4.89,3.46-2.34,1.43-3.46,3.52-4.04,4.89-.6,1.28-1.49,2.1-2.91,2.25.6.36,1.49,1.21,1.94,1.49-.67.15-1.8.15-3.83,1.88-2.13,1.76-2.85,2.28-3.83,2.43h-.01Z"/>
          <path class="cls-51" d="m220.12,362.54c1.16-.82,2.42-1.48,3.75-1.99,4.74-1.88,9.75-2.25,11.72-2.85,1.88-.6,3.37-1.43,5.71-1.88-.06.53-.11,1.03-.17,1.51-6.89,2.17-13.91,3.91-21.02,5.22h.01Z"/>
          <path class="cls-60" d="m307.48,237.96s-.97,5.25-2.7,8.56c-1.73,3.31-3.6,7.9-3.6,7.9.01-1.03.13-2.06.36-3.07-2.19,1.28-7.5,4.34-9.01,5.71-1.43,1.28-3.83,3.52-4.43,4.59,1.43-4.19,2.91-7.96,3.16-9.69-2.19,1.58-12.39,9.99-17.7,15.55l-16.55,13.39c-1.91,1.03-3.88,1.95-5.89,2.76-2.85,1.21-6.22,2.25-8.71,3.22.67-1.79,1.73-3.37,3.22-4.89,1.58-1.49,6.32-6.62,7.04-9.01.67-2.49.82-3.98-.06-6.07-.82.21-2.7.3-3.98.67-1.28.36-2.64,1.73-2.64,1.73,0,0,.97-5.56,3.07-10.81-1.58.06-4.28.51-4.28.51,0,0,3.77-6.32,10.21-10.72-1.97.42-3.9,1.02-5.77,1.79-3.77,1.58-7.9,3.92-10.96,5.19,1.73-2.4,13.88-19.74,21.11-35.9,7.21-16.12,9.9-20.25,11.48-28.91.82-4.28.6-10.61.82-16.28.21-5.62.91-10.66.46-14.03,1.88,2.34,8.93,8.93,9.17,23.66.21,14.73-6.74,34.62-14.12,45.34,1.8.52,6.47,1.13,11.27-7.21,4.8-8.33,4.74-10.66,6.47-14.12.21,1.73.15,2.34.15,2.34,0,0,6.99-8.47,10.3-19.13.67,4.59,2.64,8.63-.46,17.04-2.76,7.59-6.38,9.44-6.38,9.44,0,0,1.79-.3,4.43-1.88.46,1.12.37,2.4,1.13,2.85.76.45,1.79,1.22,1.94,1.94.82-1.22,2.09-2.76,2.49-3.92-.3,2.4-.52,12.91.6,18.25,2.34-.21,4.74-.36,6.38-4.59-1.12,4.13-1.12,6.62-.36,10.14,1.25-.85,2.37-2.37,2.37-2.37h0Z"/>
          <path class="cls-64" d="m228.58,70.58s-2.34.97-6.32.97c-3.46,0-2.49-1.34-7.9-1.34-8.32,0-37.38,4.8-42.49,4.74-3.31-.06,11.17,1.43,11.17,1.43l37.02.52,7.44-.6,2.76-5.63-1.7-.09Z"/>
          <path class="cls-86" d="m132.59,142.94s-4.74,3.61-6.74,6.38c-2,2.76-3.07,4.58-5.34,6.83.53.02,1.07-.05,1.58-.21,0,0,0,.6-.36.76.64-.07,1.27.15,1.73.6-.67.36-2.49,2.19-1.06,4.34,1.06,1.64,3.31,1.79,3.31,1.79,0,0-.52,1.49,1.64,1.34,4.65-.21,9.84-2.25,12.24-1.73,2.4.6,3.77.82,5.47,3.77,1.8,2.91,3.37,3.37,3.37,3.37,0,0,1.06-2.7.82-6.74.87-2.18,1.35-4.49,1.43-6.83l-1.58-11.63-6.89-8.72-8.93,4.95-.67,1.73h0Z"/>
          <path class="cls-68" d="m141.06,141.21s.67,1.58,3.46,1.73c-.3.67-.3.76-.21,1.28.06.52.15,1.28.15,1.28.31-.15.59-.35.82-.6.15.67-.15,1.73,0,2.49.09.46.25.91.45,1.34.04-.1.1-.2.15-.3.06-.15.6,1.64,2.1,3,0-.21.05-.42.15-.6.02.38.15.75.36,1.06-.11-.05-.21-.13-.3-.21,0,0,.15,4.8.97,7.29.14-.16.26-.33.36-.52,0-.15-.06,1.34-.21,2.4-.21,1.06-.06,2.55-.06,2.55.55-.43,1.15-.79,1.79-1.06.91-.37,2.4-1.49,3.31-3.98.53-1.41.93-2.86,1.22-4.34.29.57.5,1.17.6,1.8.06.76,1.49.36,1.49.36l.3-3.31,1.8-7.5,1.64-4.65,7.9-12.3,14.27-10.99,12.45,2.85,10.51-14.27-18.1-10.87-17.13,1.79-15.54,21.53-12.45,19.53-2.25,3.22h0Z"/>
          <path class="cls-33" d="m230.76,110.05s-1.06.21-4.13,1.8c-3.07,1.59-5.19,2.09-6.38,4.43-1.19,2.34-1.28,4.19-1.28,4.19,0,0,2.1-.91,3.31-1.22,1.28-.3,2.7-.21,2.55.3-.15.35-.35.68-.6.97,0,0,2.4-.06,2.34,1.12-.06,1.19-.45,2.49-.91,3.07-.46.6-2.34,1.49-2.55,2.19-.52,1.43.21,1.49-.06,2.64-.21,1.12-1.21,3.31-4.49,7.14-3.37,3.83-4.8,6.53-4.8,6.53,0,0-1.64-3.07-2.49-5.71-.6.3-3.83,2.09-3.83,2.09l-7.47-26.02.15-1.73s.67-.82.82-2.34c-1.12-.36-1.28-.67-2.76-2.09s-2.7-3.16-5.19-4.34c-.36-.67-.82-1.58-2.64-1.94s-2.91-.67-2.91-.67c0,0,.97-.37,1.43-1.12-1.12.15-2.03.52-4.49.46-2.49-.06-2.76-.15-4.13.06-1.37.21-3,.82-3.61-1.28-.67-.52-2.1-.06-3.31,1.73-1.22,1.79-1.64,3.22-3.98,3.92-.16,1.03-.53,2.02-1.06,2.91-.67,1.13-1.73,2.25-3.16,3.92-2.25,2.64-1.88,6.98-5.47,10.3-3.61,3.31.6-9.17.6-9.17l5.77-13.81,16.43-16.06,25.51-1.73,2.49,13.21,12.45,4.28,7.87,11.99h0v-.02Z"/>
          <path class="cls-41" d="m234.8,112.97l-10.72-15.46-7.5-5.77s-5.34-9.84-5.71-10.14c-.3-.21-5.34-.76-8.56-.97l.6,1.49c.7.23,1.33.65,1.8,1.22,1.43,1.64,2.34,4.74-.91,8.05,1.28.45,1.8.6,2.91.45-1.12,1.34-3.67,4.19-3.83,6.68-.15,2.03,1.12,2.64,1.12,2.64,0,0-1.94,2.25-2.03,6.01.92-1.04,1.92-1.99,3-2.85,2.25-1.8,5.34-3.83,7.44-5.1-.03.54.04,1.07.21,1.58,0,0,3.92-3.22,7.21-1.79,1.49.67.82,2.76.82,2.76,0,0,2.04-.76,3.46.67s3.46,5.1,4.49,6.53c.45.67,1.64,1.94,2.85,3.92,1.66,2.76,3.04,5.68,4.13,8.72.06-1.22.3-2.91,2.4-2.91l-3.19-5.71h-.01Z"/>
          <path class="cls-91" d="m74.1,156.88s-.76-1.88,0-5.56,1.94-5.4,2.34-10.81c.39-5.4,3.92-12.15,3.92-12.15l9.75-4.43,6.89,1.88,2.03,9.23-8.72,4.8s-.45,2.03-2.91,3.67-5.86,2.91-6.68,4.59c-.49,1.02-.85,2.11-1.06,3.22,0,0-2.49-.52-3.98,1.12-1.58,1.67-1.52,3.16-1.58,4.43h0Z"/>
          <path class="cls-88" d="m93.78,154.42s-.82.52-1.43,1.8c-.6-.97-2.04-6.74-2.1-11.94-.06-5.19-.37-6.48.83-8.27,1.2-1.79,5.91-3.68,5.24-6.9-.67-3.07-3.46-4.34-6.89-3.46-2.4.6-4.19,5.71-6.68,8.26-1.88,1.94-4.13,1.64-4.74,2.7-.82,1.43-.06,2.85-.3,3.77-.06.3-.82,1.94-2.19,3.92-2.76,3.98-7.44,9.6-8.05,14.64.21-2.85.06-2.91.82-6.07l-.46-.76,3-9.84,1.94-8.11,4.34-13.58,7.65-13.88,7.44-8.32,7.74.52.91,11.63,4.43,21.84,9.32,11.48-14.94,10.06-5.92.52h0Z"/>
          <path class="cls-97" d="m98.42,158.55s-1.28.3-1.73.06c-.46-.24-.91-.52-.76-.82.15-.3.97-.82.97-1.06.03-.46-.3-.86-.76-.91-.7-.09-.91.36-.91.36,0,0-.67-.51-1.21-.6.32-.04.65-.06.97-.06-.84-.38-1.73-.64-2.64-.76.76-.45,2.25-1.79,3.22-1.79s1.58-.15,1.43-.67c-.15-.52-.91-1.28-1.73-1.58.3-.36.52-.91-.21-2.4-.76-1.49-.46-2.49-.21-2.85.21-.46.97-1.28,1.34-1.79.36-.52.67-1.22,1.28-1.58.3-.21,1.28-.6,2.25-.97,1.06-.36,1.94-.82,2.55-.36.67.45.36,1.06.36,1.06,0,0,2.1-.76,3.98.21,1.88.91,6.47,1.49,6.47,1.49l1.64,3.31-10.87,9.32-4.49,2.25-.91.15h0Z"/>
          <path class="cls-95" d="m113.51,143.31s-3.37,2.25-4.13,3.07c.45.06,1.21.37.91.82-.36.45-2.55,2.03-3.77,3.52-1.28,1.49-2.49,3.37-2.91,4.28-.45.82-3.92,3.22-5.1,3.52,2.49,0,7.5-3.07,9.38-3.07-.06.91.52,1.94,1.58,2.03,1.06.09,4.13.67,8.26-1.88,4.13-2.49,2.76-4.34,4.49-5.56,3.31-2.19,4.65-4.13,6.47-5.34s2.76-1.49,2.76-1.49c0,0,.06-.91.6-.82.3.03.56.23.67.52,0,0,3.16-2.25,7.21-2.85-.09-.04-.17-.12-.21-.21,0,0,.3-.15.36-.3,0,0,.21-.3.36-.15.15.15.36,1.28.67,1.73.67-.3,1.94-3.16,1.94-3.16l3.07-8.78v-8.02l-2.4.46-18.02,7.65-10.93,11.33-1.28,2.7h0Z"/>
          <path class="cls-79" d="m165.38,103.98c.97-.24,1.91-.62,2.77-1.12-.36.97-.36,2.04-1.94,4.34-1.58,2.31-1.64,2.64-2.91,5.04-1.28,2.49-1.43,6.07-2.64,7.65.54-.26,1.13-.44,1.73-.51,0,0-1.21,1.06-1.73,2.19s-1.43,3.46-3.67,4.89c-2.25,1.43-5.1,2.34-8.17,5.71-3.07,3.31-6.23,7.5-7.81,9.01.82-1.43,1.94-4.28,2.25-6.16s-.06-4.13.45-6.62.52-4.28,3-8.63,6.74-19.44,6.74-19.44l9.17-2.91,2.76,6.56h0Z"/>
          <path class="cls-46" d="m158.76,98.42s-2.76,3.98-3.52,7.5-.06,3.22-.52,4.95c-.27,1.06-.27,2.16,0,3.22.96-1.54,2.27-2.83,3.82-3.77,2.61-1.58,4.74-2.7,6.01-4.04,1.28-1.43,2.34-3.77,5.1-5.56-1.12-.15-2.7-.67-3-.6,1.13-1.28,4.49-3.22,7.9-5.56,3.37-2.4,3.16-3.37,8.63-5.77-1.79.3-2.64-.15-4.13,0,.6-1.28,2.7-1.88,4.8-3.98,2.1-2.09-1.34-5.19-1.34-5.19l-16.01,9.69-7.74,9.11h.01Z"/>
          <polygon class="cls-49" points="115.31 91.19 115.67 88.28 120.26 80.93 125.06 68.02 125.06 50.38 124.69 40.18 125.45 33.49 126.03 31.37 126.63 30.55 130.55 32.58 135.96 39.93 136.47 54.12 131.22 76.5 116.22 92.87 115.31 91.19"/>
          <path class="cls-64" d="m127.24,29.73s-2.4.06-2.91,10.05-.76,15.24-1.12,20.19c-.36,4.95-1.21,7.96-1.64,10.87-.43,2.92-.67,6.89-2.03,9.32-.6,1.12-1.88,4.65-4.89,7.29-3.37,2.91-8.41,4.95-9.17,5.1-1.34.3-8.11.97-10.87,2.49-.97.52-2.64,1.12-4.49,2.85-3.68,3.31-8.56,9.23-12.09,16.37-5.4,10.66-10.81,40.75-10.81,40.75l1.22-2.03s.15-2.7,2.85-7.44c2.64-4.74,1.88-10.05,5.56-19.13,1.43-3.46,3.22-7.96,5.41-11.78,3.46-6.23,7.65-11.57,11.87-14.49,6.89-4.74,14.49-5.77,14.49-5.77l8.17-5.4s1.43-2.76,3.31-5.92c2.64-4.43,6.01-9.38,6.74-16.58,1.12-10.66-1.58-17.64-1.43-23.96.15-6.32.21-10.96,1.49-12.09,1.28-1.12.36-.7.36-.7h0Z"/>
          <path class="cls-58" d="m127.24,77.41s3.6-8.87,5.25-16.73c.3-1.58.91-3.16,1.06-4.43.76-7.44.97-10.51,0-14.58-.76-3-3.67-5.71-5.19-7.81-1.49-2.19-2.19-3-1.88-3.46.3-.46,1.49-1.21,2.64-1.12,2.48.07,4.82,1.16,6.47,3,2.34,2.7,4.19,11.88,4.19,11.88l1.95,12.1,4.95,15.24-19.44,5.92h0Z"/>
          <path class="cls-81" d="m161.1,68.18s-.67.3-1.88,0c.11,1.01-.36,2-1.22,2.55-1.28-.52-13.21.52-13.21.52,0,0-5.56-.97-7.29-8.32-1.21-4.89.91-11.63.21-16.06-1.06-6.53-2.55-7.81-2.7-9.84-.15-2.03-.3-2.55-.3-3.83-.67-.15-1.06-.36-1.73-.36-.15-.6.15-1.12-.52-2.19.36.15,2.85.46,5.77,3.22,2.4,2.25,2.4,3.07,2.76,3.52.45.45,4.13,3.6,5.71,6.74,1.58,3.14,4.65,13.15,5.34,14.79.21.67.67,1.34,1.8,2.85,1.76,2.19,4.34,5.81,7.26,6.41h0Z"/>
          <path class="cls-64" d="m141.42,37.53c1.84,2.97,3.49,6.06,4.95,9.23,1.79,4.04,2.85,7.35,5.1,10.05-1.22-3.52-3.37-10.45-4.65-12.91-1.43-2.6-4.34-5.4-5.41-6.38h0Z"/>
          <path class="cls-94" d="m120.77,87.46s-3.07.76-8.78,3.77c-1.88.97-3.67,1.79-5.4,2.55-4.5,2.03-9.32,3.91-13.15,4.95.3.36.45.51.45.51,0,0,0,1.49.82,2.34-.45.46-6.53,4.59-4.74,18.4,1.21-.45,2.64-1.06,2.85-1.06.37.06.46,1.06.91,1.06s1.94-.6,3.52-2.64c-.06.82-.97,9.08,3.92,14.64.91-1.06,3.22-4.59,3.22-4.59l.06-1.12s.21-3.92,1.49-7.5,3.77-6.23,3.77-6.23l12.99-18.56-1.94-6.53h0Z"/>
          <path class="cls-37" d="m108.63,114.71c-.59.42-1.25.75-1.94.97-.21-.76-.52-3.37,1.28-5.92,2.1-3.07,6.68-7.05,7.96-10.21.82-2.04.46-7.14,7.75-13.67,7.29-6.53,10.14-8.78,10.14-8.78l11.78-5.92,14.49,5.71-7.2,28.21-5.59,13.21-22.22-4.19-16.44.59h0Z"/>
          <path class="cls-85" d="m117.11,107.05l2.76-3.46v-2.46s3.07-.82,6.38-4.19c3.31-3.37,7.9-9.84,11.93-9.44,4.04.46,4.43,8.78,4.59,11.12.15,2.34.67,7.65,1.49,10.51.91,2.85-9.84,13.66-9.84,13.66l-7.3,5.56-10.01-21.29h0Z"/>
          <path class="cls-59" d="m125.66,135.87s2.25-3.52.6-4.28c.97-2.19,2.76-4.49,2.76-4.49,0,0,1.28-3.16,5.4-7.04s6.68-6.47,7.35-9.08c.41-1.7.64-3.44.67-5.19.45.36.92.69,1.43.97.67.3,3.83,2.91,3.37,8.17-.45,5.25-2.4,7.44-2.4,7.44,0,0-1.88,1.88-3.22,2.85-1.43.97-1.94,2.09-4.34,2.19.25-.2.52-.35.82-.46,0,0-2.49-.3-3.83.91-1.34,1.21-4.18,4.95-5.61,6.08-1.43.91-3,1.94-3,1.94h0Z"/>
          <path class="cls-53" d="m226.63,76.8c-3.59-1.31-7.36-2.05-11.17-2.19-6.38-.21-15.7.15-24.84.21-9.84.06-18.77-3.37-31.16-3.98-2.03-1.22-7.21-6.53-23.35,4.74.97-.06,11.72-2.49,15.46,2.19,3.77,4.65,2.7,12.54,2.19,14.42-.97,4.19-4.13,10.3-5.41,14.58-1.27,4.28-.97,6.53-1.88,9.53-.91,3-2.91,4.49-1.73,7.96,1.58-.97,2.4-.97,5.04-6.89,2.64-5.92,2.1-10.14,6.47-15.15,4.28-5.04,11.41-11.93,14.12-13.67,2.71-1.73,24.23-12.91,46.77-2.25,5.43-.58,9.5-9.51,9.5-9.51h0Z"/>
          <path class="cls-80" d="m145.19,72.67c-.02-.23-.07-.45-.15-.67-.21-.44-.49-.85-.82-1.22,0,0-5.34-.97-8.05-.67-4.74.52-9.02,6.38-11.02,9.38-2,3.01-4.49,7.65-7.2,10.05.03-.23-.02-.47-.15-.67,0,0,.15.21-.15.52-.3.3-.3.45-.15.6l.46.45c.15,0,4.34-1.88,10.05-7.21,6.07-5.56,10.72-8.41,13.15-9.38,1.3-.55,2.65-.95,4.04-1.2h0Z"/>
          <path class="cls-25" d="m248.86,49.83s-.97,1.21-2.19,2.55c-2.7,2.85-6.23,6.07-9.23,9.38-2.85,3.16-6.07,5.62-9.69,9.75-3.62,4.13-7.81,8.71-8.87,10.05-.97,1.34-1.73,3.52-1.73,4.65-.52-.36-1.12-.76-1.12-.76.26.48.56.93.91,1.34.76,1.06,1.94,2.4,2.55,3.22.75,1.04,1.28,2.22,1.58,3.46.36.06,2.7.52,5.62-4.28s6.74-10.05,6.74-10.05l6.07-9.02,3.83-7.65,4.8-8.56.73-4.07h0Z"/>
          <path class="cls-64" d="m255.09,43.7s-3.68,3-5.1,4.8c-1.43,1.8-4.8,6.53-4.8,6.53l1.22-.15,6.17-5.47,2.4-4.28.12-1.43h0Z"/>
          <path class="cls-65" d="m253.97,285.03s-.06-2.49,1.34-3.98c1.43-1.49,5.04-3.68,8.56-11.88,3.52-8.2,3.92-10.05,3.92-10.05,0,0-6.32,5.4-10.21,6.68.91-1.88,1.43-3.22,1.88-4.19-.52-.45-2.7-.97-2.91-1.21,1.21-1.22,1.88-4.19,4.34-6.17,3.16-2.4,8.93-6.53,13.41-10.21,4.48-3.68,13.3-12.24,14.43-14.73.67.97.82,1.58.82,1.58,0,0-4.43,5.77-6.74,9.44-2.04,3.16-1.88,4.95-1.88,4.95l4.19-1.8s1.21,4.49-4.28,11.33c2.4-.91,3.37-.36,4.74-1.12-2.25,1.43-5.34,3.37-8.26,8.72-2.85,5.34-6.74,11.57-13.3,15.46-6.38,4.1-10.05,7.17-10.05,7.17h0l.02.02Z"/>
          <path class="cls-76" d="m237.51,79.96s-2.49,5.19-2.85,9.23c-.06.97-.3,1.73-.3,2.85-.06,3.61.21,7.65-.6,9.53-.3-.76-.46-1.28-.76-1.58-.45,1.28-1.28,5.25-1.94,6.74-.3-.97-.97-4.34-.91-8.32.06-3.98.15-4.74.15-5.56-.15,1.21-.97,2.85-1.28,3.83-.45-.82-.97-1.88-1.58-2.76-.36.6-.82,1.49-1.21,1.94-.06-.36-.21-1.34-.3-2.7-.06-1.58-.15-3.61-.06-4.04.15-.82,1.43-4.04,4.13-6.98,3.22-3.52,6.53-10.29,7.5-12.39.97-2.1,5.1-10.81,5.1-10.81h3.16l-4.59,10.45s-2.76,5.71-4.19,7.81c-1.43,2.1-4.43,8.11-5.77,10.45.97-1.28,1.79-1.94,2.76-3.16.94-.85,3.55-4.52,3.55-4.52h0Z"/>
          <path class="cls-55" d="m255.15,43.3c-.52,1.59-1.33,3.06-2.4,4.34-1.88,2.25-5.92,5.25-7.9,7.65-1.8,2.34-5.41,8.72-3.77,16.28.6-1.64,1.73-4.89,4.74-8.56,3.01-3.68,6.23-7.9,7.81-11.17,1.58-3.31,1.79-5.92,1.79-5.92l.6-.76-.36-1.73-.52-.12h.01Z"/>
          <path class="cls-64" d="m316.65,244.73s-1.22-3.31-1.58-6.32c-.36-3.01.6-3.6-.52-7.04-.67-2.1-1.88-1.8-2.19-2.1-.3-.29-.52-3.46-.46-5.19.06-1.73-.06-3.98-.36-4.95-.45-.36-.76-.67-1.43-2.91-.76-2.25-1.12-3.37-1.49-4.04-.36-.67-1.43-1.28-1.43-1.94,0-1.34,1.22-2.03,1.22-2.4-.06-.76-.97-.15-1.22-.36-.3-.36.76-2.55.37-2.85-.15-.15-1.22,1.12-1.49.76-.3-.37-.67-3.98-1.22-6.38-.51-2.34-1.06-4.04-1.12-4.74-.06-.67-4.19-12.45-5.19-15.31-.81-2.41-1.49-4.87-2.03-7.35-.3-1.43-.52-4.34-.67-4.04-.15.3-.06,1.79-.3,1.73-.21-.06-.97-5.25-1.21-6.07-.21-.82-1.49-3.6-1.8-5.62-.3-2.04-.97-7.35-1.43-10.96-.46-3.61-.67-5.1-.67-6.01.07-2.21-.05-4.43-.36-6.62-.6-3.83-1.8-8.47-2.85-11.17-2.03-5.1-7.44-18.16-8.41-21.41,0-.82,1.06-.36,1.06-.36,0,0,2.64,6.62,4.58,11.72,1.88,5.1,3.68,9.6,4.13,10.05.36.45,3.22,5.47,4.49,13.66,1.28,8.2,1.73,15.76,2.49,20.8.36,2.4.67,4.95,1.43,7.5.82,2.76,2.09,5.62,3.77,9.99,1.43,3.68,2.49,6.74,3.07,9.38.67,3.37.67,5.92,1.06,7.59.37,1.43.91,4.28,2.19,8.41s3.16,9.44,4.43,12.75c2.49,6.62,3.6,12.15,3.98,15.09.33,3.04,1.46,13.54,1.15,16.7h0Z"/>
          <path class="cls-63" d="m255.3,42.94l-.15.36s.45.15.36.76c0,.83-.04,1.66-.15,2.49-.15,1.06-.45,1.88-.51,2.55,0,1.43.21,3.07-1.8,7.14-.6,1.12-.97,2.09-1.28,2.76-.76,1.64-.91,1.88-1.58,2.64,1.06-.6,4.89-3,6.83-2.64-1.34.76-3.37,2.25-4.65,4.19.3.06,1.58.3,3.6,0,3.37-.52,7.14-1.73,10.45-1.49,3.62.21,2.19-4.34,2.19-4.34l-4.17-9.17-7.9-5.56-1.25.3h0Z"/>
          <path class="cls-78" d="m275.89,111.63s-3.52-3.52-4.95-15.61c-1.43-12.15-1.12-30.03-1.12-30.03l-2.85-6.98s-.6-4.65-2.1-6.38c-1.5-1.73-4.43-4.65-5.77-6.07s-2.85-3.37-3.77-3.68c.45-.76,2.49-5.04,10.29-5.1,7.8-.06,10.21,4.28,11.02,5.86.81,1.58,4.49,8.41,5.86,21.42,1.28,13,1.34,13.97,1.12,18.46-.15,2.49-.97,8.26-2.4,14.42-1.31,5.22-2.73,11.06-5.34,13.7h0Z"/>
          <path class="cls-76" d="m264.84,121.99c1.17.08,2.35-.18,3.37-.76,1.12-.06,5.19.46,8.32-3.52.21.91.76,3.37-.67,5.56.76-.76,1.88-1.06,2.04-1.28.06,1.12,1.12,4.58-3.37,13,1.21-1.34,2.64-1.28,3.92-1.43.06,1.58.91,6.89-1.34,9.75-1.49,1.94-3.92,1.34-3.92,1.34.04-.42.04-.85,0-1.28-.06-.82-.36-1.64-.15-2.19-1.17-.54-2.24-1.28-3.16-2.19-2.64-2.49-6.07-6.74-6.32-9.9-.3-3.52,2.85-4.28,2.85-4.28-.26-.24-.49-.51-.67-.82-.15-.51-.3-1.34-.91-2h0Z"/>
          <path class="cls-69" d="m241.42,83.79s-.15-.21-.97.76c.15-.97.3-1.88.36-2.76.39-.82.89-1.57,1.49-2.25-.46.91-.76,1.73-.76,1.73,0,0,1.13-2.1,2.76-3.37,1.12-.91,2.55-1.34,3.16-2.19.67-.91.52-1.06.67-1.22,0,0,1.49-.97,3.77-3.83.3-.36.76-.76,1.06-1.12.51-.21,1.73-.76,3.16-1.49,1.49-.82,3.16-1.94,4.19-2.4,2.03-.91,4.19-.82,5.19-2.25.76-.21,1.58-2.49,1.43-4.43,1.12.45,6.89,4.04,8.87,11.87,1.43,5.56-1.13,14.12-2.19,18.25s-1.21,7.2-2.7,9.08c-1.88,2.49-7.96,6.01-9.44,7.75-1.28,1.43-5.1,5.04-4.95,7.65.15,1.94,2.55,3,3.07,3.37.52.37.51.82,1.49.6s1.34-.67,1.73-.67c.45.06.45.15.67.15.15,0,.31-.03.46-.06,0,0-.15,2.76-6.62,3.6-.46.06-.91.21-1.49.3.76-.36,1.22-.36,2.04-1.49-.91-.15-3.52-.3-4.19-.52.21-.36.91-1.34,1.49-1.79.52-.45-.06-.6-.51-.36-.78.53-1.53,1.11-2.25,1.73-.76.67-1.43,1.58-2.64,2.4-.36-1.22-.3-3.52,1.13-5.19-.37.06-1.06,1.12-1.73.91-.12-1.11-.05-2.23.21-3.31.36-1.37,2.34-3.77,2.34-3.77l9.53-17.04,2.03-12.91-21.83,4.24h0Z"/>
          <path class="cls-67" d="m240.91,84.51s-.52.36.52,1.06c-.15.21-.52.97-.97,1.49-.51.6-1.06.97-1.28,1.49-.45,1.06-.82,1.79-.82,2.25s-.15,3.37-1.43,5.25c-.46.67-.97,1.79-1.34,2.55-.76,1.34-1.43,2.4-1.58,3-.3,1.06-.51,3.98-.51,3.98,0,0,.67-.82.91-1.12-.37.76-.76,1.58-1.34,2.19.36-.3,1.43-1.06,3.22-2.64,2.49-2.09,6.38-5.62,11.12-8.41-1.43.52-2.64.52-3.61.67.76-.76,7.59-8.78,11.17-9.53.22-.28.33-.62.3-.97l-3.07-.3-6.23,1.34-.91-4.8-4.16,2.52h0Z"/>
          <path class="cls-18" d="m250.81,111.85s-.82.82-1.58,2.85c-.58-.61-1.08-1.29-1.49-2.04-1.12-1.88-2.85-4.28-6.89-2.91-.06-1.28-.15-1.94,0-2.85.67-.15,2.7-1.79,4.74-4.19,1.43-1.64,2.76-3.52,3.68-5.92.6-.46,1.64-1.22,3-2.1,1.94-1.34,4.28-3.16,4.65-5.19-.91.36-2.85,1.28-5.77,1.12,1.12-.52,2.85-1.06,2.64-3.31.46-.3.82-.52.82-.52-.34-.11-.7-.17-1.06-.15-.06-.21-.15-.51-.67-.36-.52.15-.6.15-.67.36-.21.06-.91,0-1.43.37-.52.37-1.94,1.58-2.49,1.79.21-.36.51-.91.51-.91,0,0-1.49.15-2.55.6-1.94.67-4.19,1.88-6.47,3.07.21-.36.3-.6.45-.67.15-.07.52-.15.52-.21s-.15-.6-.06-.82c.68-1.44,1.48-2.82,2.4-4.13,1.06-1.43,1.28-3.46,1.28-3.46l4.65-2.34,13.06-3,8.47.52-1.06,5.86-5,10.23-4.28,9.32-4.89,5.71-4.49,3.28h0Z"/>
          <path class="cls-71" d="m271.97,86.48s-5.1,6.32-6.53,7.29c.91-1.94,6.53-13.51,8.56-16.73-.45-.36-1.06-.36.36-6.01-1.21,2.85-1.64,4.34-2.64,5.1-1,.76-1.12.52-1.8.52.13-.23.18-.5.15-.76,0,0-4.28-.52-7.21-.52s-8.71,1.58-11.93,2.85c-2.55,1.06-3.98,1.06-4.89,1.73-.91.76-1.43,1.58-1.88,1.79-.36.21-2.09.76-2.49,1.34-.36.6-.97,1.28-.97,1.43s-.15.37.3.21c.15-.06,1.28-.67,2.55-1.43,1.73-.97,3.83-2.09,5.34-2.76,4.34-1.73,5.71-1.43,7.65-1.79,2.03-.36,4.95-1.22,6.89-1.22,1.94-.06,5.62,0,6.47.15-.36.3-.67.67-.52,1.94,0,.36-.3.76-.6,1.64-.91,2.49-2.64,6.62-3.6,8.72-1.34,2.85-2.85,5.25-3.6,6.74-.75,1.49-2.4,5.4-4.04,7.5-1.64,2.1-2.49,3.37-3,3.83s-4.19,3.16-3.92,4.13c.67-.21,4.89-1.8,7.96-5.25,3.06-3.45,3.68-5.56,6.07-7.44s4.28-5.04,5.4-7.65c.94-2.43.73-3.19,1.91-5.35h0Z"/>
          <path class="cls-75" d="m162.01,133.62s-.67,2.76-2.19,4.13c-1.49,1.34-4.13,2.49-4.43,4.74-.36,2.25,2.64,3.37,2.64,3.37,0,0-1.64,2.7-1.64,4.74s-.06,2.49.15,4.49c-.24.15-.45.36-.6.6,0,0,.15,1.94,1.64,3.16s2.76,1.94,3.52,1.64c.12.25.22.5.3.76,0,0,1.13-2.85,1.88-5.34.76-2.55,1.43-2.19,1.73-5.62.3-3.43,3.6-9.32,3.6-9.32l2.25-5.03-3.67-2.85-5.19.55h0Z"/>
          <path class="cls-70" d="m168.85,138.57c-.76.78-1.46,1.61-2.09,2.49-.97,1.34-1.73,2.55-3.16,3.07s-2.34.51-2.25,1.94c.09,1.43,1.43,2.03,2.19,2.76.82.76,1.49,2.03,1.12,3.46.45-.21,1.28-.46,2.03-2.1s6.07-11.63,6.07-11.63h-3.91Z"/>
          <path class="cls-35" d="m189.77,115.52s.45-1.21,0-2.09c-.46-.91-3.22-1.22-4.59-2.25-1.43-1.06-3.16-1.8-4.59-1.34.21-.52,1.06-1.64.36-1.88-.67-.21-3.16.91-3.83,1.43s-2.19,1.12-2.49,1.49c-.3.37-.82,1.06-1.12.76-.3-.21-.45-.76-.97-.46-.52.3-3,2.34-3.46,3.52s-1.49,3.83-4.59,6.83c-3.1,3-4.43,4.95-3.52,6.07.91,1.12,1.34.3,1.49,1.28.12.95.07,1.92-.15,2.85-.36,1.58-.97,3.07-.15,3.37,2.1.67,4.13-.6,4.59-.21.91.82-.52,3.77,1.64,4.34,2.19.6,4.34-.52,4.34-.52l7.96-4.28,7.65-4.04,3.92-7.75-2.1-6.47-.4-.67h.01Z"/>
          <path class="cls-44" d="m182.27,134.01s-1.34-2.03.3-3.83c1.64-1.79,3.98-2.55,4.89-3.67-.17-.21-.41-.37-.67-.45.6-1.08,1.53-1.95,2.64-2.49-.45-.45-1.06-.82-1.73-.82-1.49,0-2.4.91-3.77.91s-1.49-.67-1.49-.67c0,0,2.25-.21,2.03-1.22-.21-1.06-.6-1.06-.6-1.06,0,0,4.34-1.8,5.1-2.76.76-.96.67-2.1.82-2.55.51,0,3.52-1.58,4.74-.91s.36,2.49.36,2.49c0,0,3.68-2.76,5.55-5.48,1.64.15,2.4-1.12,3.6-1.12,1.49,0,3.83,2.03,4.28,6.38.3,2.49.76,3.92.3,8.32-.21,2.49-.15,7.81.6,10.45.51,2.1,1.73,1.88,1.73,1.88-.19.64-.56,1.21-1.06,1.64-.82.76-.91,2.76-.82,3.52.12.55.27,1.1.46,1.64,0,0-.97,1.12-1.22,1.88-.21.76-1.21,1.28-1.94,1.28s-.36-.06-1.34,0c-.97.06-1.28.21-1.88,0-.61-.21-1.06-.46-.82-2.4.21-1.94-7.5-6.47-7.5-6.47l-12.61-4.49h.03Z"/>
          <path class="cls-14" d="m167.78,153.2s2.76,3.68,14.12,3.68c5.4,0,7.29-.52,8.41-.82,1.22-.3,5.77-2.09,10.36-7.5,4.13-4.89,3.22-6.89,3.22-6.89l-2.4-.36-7.81,1.06-23.1,9.84-2.8,1h0Z"/>
          <path class="cls-23" d="m176.25,154.12s-9.84,2.19-9.84-4.04,6.07-12.45,7.59-13.57c1.58-1.13,5.34-2.4,5.34-2.4h9.08l1.73,4.59-.76,9.9-13.15,5.53h0Z"/>
          <path class="cls-42" d="m185.33,135.96s-1.88-1.73-6.16.6c-4.28,2.33-7.75,7.21-7.96,11.63-.21,3.92,3.22,6.83,8.56,6.98,3.98.15,6.38-.3,7.59-.6-.3-.36-1.88-2.34-1.88-2.34l-.15-16.28h0Z"/>
          <path class="cls-93" d="m183.48,136.93s-.45-.36-1.8.36c-1.12.6-2.76,2.19-4.04,3.31-.82.67-1.34.97-1.8,1.49-1.88,2.25-3.46,5.92-2.55,7.75.91,1.82,3.92,3.92,11.57,2.49l-1.4-15.4h.02Z"/>
          <path class="cls-23" d="m180.99,140.69s-1.22,1.88-1.22,4.89,1.73,7.96,8.11,8.32c4.89.3,8.17-7.04,11.72-9.9,2.7-2.19,4.34-2.25,4.34-2.25,0,0-2.76-3-10.14-6.89-7.29-3.92-15.46-4.43-19.89,1.58,2.1-.15,8.87-1.88,8.87-1.88l3.31,1.06-5.1,5.07h0Z"/>
          <path class="cls-22" d="m190.53,144.67c-.21-.45-.36-1.06.52-1.21.88-.15,1.28-.06,1.58.6.3.66.6,1.22.15,1.49-.45.24-1.64,0-2.25-.88h0Zm-1.43-4.28s-.3.21-.15-.21c.06-.51.46-1.43,1.43-1.21s.76,1.28.6,1.58c-.16.3-.97.82-1.58.6-.27-.07-.43-.35-.37-.62.01-.05.03-.1.06-.14h0Z"/>
          <path class="cls-32" d="m106.9,142.33s2.4,1.8,5.19,1.73c2.76-.06,6.32-2.91,7.96-4.74.97-1.06,1.8-2.19,2.7-3.07.76-.76,1.28-1.12,1.64-1.64.52-.6,1.06-1.73,1.34-2.1-.67.52-1.64,1.43-2.64,2.04-.97.6-3.07,1.73-3.92,2.03-.82.3-9.32,4.8-9.32,4.8l-2.94.93h0Z"/>
          <path class="cls-72" d="m110.57,119.89s1.34-.91,3.92-1.49c2.49-.6,7.5-1.06,7.5-1.06l4.13,1.8,1.64,6.23-3,6.47-3.83,2.4-4.34-6.98-6.01-7.35h-.01Z"/>
          <path class="cls-92" d="m105.16,125.45l-1.43,1.07s.37-.67.67-2.7c.3-2.03,1.88-6.98,4.19-9.84,2.31-2.85,2.25-2.7,2.25-2.7-.43-.08-.87.03-1.22.3.3-.67,2.25-3.07,4.19-4.28s2.7-1.58,4.74-.6,2.55,1.49,4.04,1.43c1.49-.06,2.76-1.64,2.76-1.64,0,0,.3.97-.82,3.22-1.12,2.25-5.56,6.83-5.56,6.83l-9.23,6.32-4.59,2.6h0Z"/>
          <path class="cls-62" d="m112,119.13s6.68.91,8.72-.97c.06.21.3.21.3.36-.02.11-.07.22-.15.3.22-.04.44-.06.67-.06.27.08.54.13.82.15.22,0,.45-.03.67-.06-.04.3-.21.58-.46.76.3,0,.6.06.6.3s.06.97-.3,1.12c-.3.08-.62.06-.91-.06.02.57.18,1.14.46,1.64.6,1.12,1.88,2.4,3.6,2.03,0,0,.91,2.19-2.92,7.04-.51.67-1.06,1.58-1.73,2.34-.26.57-.46,1.17-.6,1.79,0,0,6.47-2.49,8.32-8.17,1.88-5.71,2.25-11.33,1.88-16.58-.06-1.49-.3-2.55-.67-3.31-.91-1.88-3.46-1.58-4.49-.52-1.49,1.49-3.98,5.19-7.44,7.74-3.52,2.55-3.67,3-6.38,4.13h0Z"/>
          <path class="cls-14" d="m103.98,127.33s-1.28.76-1.94,3.6c-.67,2.91.6,6.47,1.34,7.59s2.4,4.19,5.86,4.34c.86,0,1.7-.18,2.49-.52,1.21-.55,2.34-1.26,3.37-2.1,1.49-1.12,2.7-2.09,2.55-2.19-.36-.15-9.17-7.44-9.17-7.44l-3.31-3.7-1.19.4h0Z"/>
          <path class="cls-20" d="m112.3,139.42s1.79-.15,2.85-.82c1.06-.67-6.23-7.9-6.23-7.9l.52,7.81,2.85.91Z"/>
          <path class="cls-15" d="m104.56,126.78s-.91,1.73-.91,2.19c-.15,1.49.3,6.16.67,7.65.36,1.58,2.34,3.98,4.89,3.98,1.58,0,3.77-.97,3.77-1.21,0-.3-2.25-.6-2.85-1.73-.36-.6-.52-2.09-.6-3.6-.06-.97-.06-2.03.3-2.4.82-.91.97-3.52.97-3.52l2.91-5.41h-3.83l-4.59,2.85-.73,1.22Z"/>
          <path class="cls-23" d="m103.43,128.46s3-3.98,5.71-4.89c2.71-.91,3.92-.36,3.92-.36l-1.58,4.04-2.25,2.49.15,1.28s-.37,3.37,1.88,5.71c2.25,2.34,3.92,2.25,4.89,2.25s3.77-.82,5.19-4.19c1.28-3.16,2.34-7.21-.21-11.27-2.49-4.04-6.89-4.2-7.75-4.2s-7.53.33-9.96,9.14h0Z"/>
          <path class="cls-6" d="m180.54,141.97c-1.12-.52-.06-3.67,1.06-4.65s2.55-2.09,5.04-2.25c.91-.06,1.79.52,1.64,1.13-.21,1.12-1.79,2.7-3.22,3.83-1.97,1.55-3.25,2.52-4.53,1.94Z"/>
          <path class="cls-7" d="m119.8,124.75c.82-.06,1.88.6,2.1,1.49.21.97-.52,2.91-2.1,2.91-1.28,0-1.94-1.58-1.94-2.03.01-.37.12-.74.3-1.06.06-.09.21-1.15,1.64-1.31Z"/>
          <path class="cls-34" d="m107.96,125.45s-2.1.97-3.07,3c-.69,1.5-.9,3.18-.6,4.8.15.76.91,2.64,1.43,3.31.52.67,1.22,1.12,1.73,1.06.52-.06,1.58-1.43,1.58-2.25s.06-4.28,1.06-6.17c.88-1.88-2.13-3.77-2.13-3.77h0Z"/>
          <path class="cls-28" d="m108.26,125.3c-.36.21-.97.52-.82.91.15.36,1.43.6,1.88,1.49.52.91.52,1.88.36,2.34.4-.19.76-.45,1.06-.76.67-.76,1.49-1.79,2.19-1.79.46,0,.91.21,1.34.21.67,0,1.34-.21,1.43-.91.15-.91-1.28-1.73-2.1-1.58.15-.6.36-1.49-.3-2.1-.67-.61-2.76.46-3.22.76s-1.82,1.43-1.82,1.43h0Z"/>
          <path class="cls-56" d="m156.52,189.1l4.49-1.33,1.28.91s.91,1.94,2.34,2.19c-.46.97-1.64,1.8-1.58,2.49.06.69.67,1.22.67,1.22,0,0-4.04,6.68,3.92,13.41-1.88.76-4.28,1.8-5.56,2.4.91.21,2.85.6,3.67,1.34.82.74.82.97,1.58,1.43s1.21,1.06,1.06,1.34c-.52-.3-2.25-1.21-2.55-.36s-7.5.52-7.5.52l-12.15,2.34s.45-1.22-.82-2.34c-1.49-1.34-3.31.06-5.25-1.43-2.55-1.94-2.64-4.19-3.46-5.04.82-.52,2.49-1.28,6.47-1.8-.15-.3-.67-1.22-.36-2.03.36-1.06,1.88-1.73,1.43-3,.67-.15.97-.15,2.64-2.25,1.58-2.1,2.55-2.55,3.77-2.7,1.22-.15,1.94,0,4.19-2.1,1.58-1.49,1.06-2.76,1.06-2.76,0,0,1.03-.33.67-2.43h0Z"/>
          <path class="cls-31" d="m143.25,189.77c.06-.3.3-.46,1.94-.3,1.64.15,12.03-.97,14.85-1.12,2.85-.21,12.91-.06,17.8.97,4.89,1.03,9.84,2.25,12.24,2.85,2.4.67,3.16.91,3.07,1.21-.06.3-.6.6-.91.52-.3-.06-8.26-2.49-10.72-3-2.46-.51-10.96-1.88-15.61-1.8-4.34.06-6.07-.06-9.75.36-3.68.46-9.75,1.06-11.57.82-1.8-.21-1.43-.21-1.34-.52h0Z"/>
          <path class="cls-38" d="m167.69,213.58s6.23,3.37,8.47,7.5c1.64,3.07-.97,4.59-.97,4.59,0,0,3.52,0,3.07,1.94-.21,1.21-6.07,4.49-9.99,6.22-3.98,1.73-3.83,1.64-5.77,1.94-1.88.3-7.05-.6-8.11.91-1.06,1.51-.6,3.07-.3,3.31.3.21,2.76.52,2.76.52,0,0-.52,1.43-5.62,1.58-5.1.15-6.38.51-6.68,1.06-.3.51.97.21,3.31.6,2.34.36,5.62.6,5.62.6,0,0-1.06.91-3.83,1.64-3.16.82-8.11,1.58-9.6,2.49.76.52,1.88,1.28,2.4,1.34-1.28.3-3.07.97-3.37,1.22.45.3,1.06.67,1.06.67,0,0-2.55,3.07-4.04,3.83-1.49.76-10.05,4.74-13,3.98-7.35-1.94-8.26-9.99-10.05-10.6-2.7-.91-3.98.91-6.38-.37,1.06-.76,1.64-1.21,2.76-1.73-1.22-.6-7.5-4.59-7.5-4.59-.66-1.43-1.39-2.83-2.19-4.19-1.22-2.1-3-4.89-4.34-7.35-2.91-5.41-3.07-7.9-5.71-10.96.46-.6,2.03-.52,2.03-.52l22.14,7.29,39.26,1.14,10.21-14.58,4.34.52h0Z"/>
          <path class="cls-47" d="m109.54,235.81c.24.26.51.49.82.67.76.52,1.88,1.13,2.64,2.03.3-.45,1.06-1.28,2.4,0s3,.37,4.04.67c1.06.37,1.12.52,1.12.52,0,0,.6-.52,1.94-1.06.82-.3,1.79-.52,2.85-.82.97-.21,2.03-.52,2.76-.52.67.45,3.07,3,12.69-.76,9.08-3.52,11.17-3.92,12.69-3.37.15-.36.3-1.06,2.64-.97,0-.97-1.94-4.28-1.94-4.28l-10.72-3.67h-5.86l-17.58,3.22-9.74,5.56-.76,2.8h0Z"/>
          <path class="cls-73" d="m103.68,229.64s.21,1.64,2.64,3.37c2.4,1.73,3.16,2.76,3.16,2.76,0,0,.46-.6.82-1.21.36-.67.67-1.43,1.28-1.64,1.22-.52,3.98.45,4.59.3.52-.15.36-1.21.91-1.21,1.28-.06,2.09.82,2.55.82s1.58-.06,1.73-.3c.15-.24.21-2.76,1.94-3.98,1.88-1.34,4.19-.76,4.8-.45,0,.45.06,1.58,1.28,1.64,1.22.06,1.34-.15,2.4.21,1.07.36,2.34-.06,2.91,1.73.52-.15,1.73-.3,1.43-2.03.6-.45,1.13-.76,2.4-2.55.3-.45.82-.97,1.22-1.64,1.06,0,2.34-.21,4.04,1.28-.52.36-.82.6-.97.97.44.44.85.92,1.21,1.43.46.6.76,1.34,1.34,1.49,1.28.36,3.37-.15,5.71,0,2.25.15,4.13.97,4.95,1.49.3-.15.3-.21,1.06-.06.76.15,1.34.21.52-.76.45.21.97.67,1.43.21.46-.46.82-1.12,2.09-1.28,1.28-.15,1.73.06,2.25-1.28.67-1.64-1.64-1.64-1.64-1.64,0,0,1.06-.97,2.25-2.25,1.43-1.34,3.07-3.07,3.46-5.19.67-3.92-3.16-4.43-3.16-4.43l-18.56,5.71-22.68-1.12-19.34,9.63h-.01Z"/>
          <path class="cls-21" d="m87,176.04s-.6.76-.97,2.55c-.37,1.79-.21,1.58-.52,2.85s-4.04,13.97-2.64,18.25c1.4,4.28,3.83,5.86,5.34,9.32.3.76.6,1.22.76,1.88.52,2.25.06,3.98.67,6.23.21.76.76,1.64,1.58,2.55,1.8,1.88,4.74,3.67,6.01,4.95,1.79,1.88,4.34,5.71,7.59,6.07,1.73.21,4.19-.52,6.23-1.73,1.8-1.12,2.91-2.7,4.8-3.6,1.34-.67,2.76-.91,4.04-1.22,2.64-.52,5.04-.6,6.47-.3,2.19.46,7.35,2.04,10.21,2.04,2.24-.04,4.46-.34,6.62-.91,4.34-1.28,9.59-3.46,13.06-4.43,2.03-.6,3.67-.76,5.34-1.12,2.85-.67,5.25-1.58,6.62-3.31-.91-1.06-2.03-2.7-8.11-2.64-6.89.15-14.85,3.98-18.77,4.59-3.92.61-5.62,1.12-9.99-.46-4.29-1.6-4.43-2.65-4.43-2.65,0,0-4.5-3.15-6.39-11.18-1.88-8.03,0-13.88,4.89-19.44,1.28-1.43.97-2.7.97-2.7,0,0,3.22-4.34,2.34-8.41-.97-4.04-7.2-3.22-7.2-3.22l-34.53,6.04h0Z"/>
          <path class="cls-12" d="m92.2,189.56c-.27.5-.39,1.07-.36,1.64.06.82.3,1.88,2.76,4.28,2.1,2.09,1.64,4.43,1.64,4.43,0,0,1.06.21,3.92-1.13,2.25-1.06,3,.82,3,.82.65-.34,1.36-.57,2.1-.67.66-.06,1.31-.27,1.88-.6,0,0,2.64,2.7,4.95,3.98,2.1,1.12,3.31,1.88,4.34,1.12.97-.67.97-2.04.91-2.64-.24-.56-.55-1.09-.91-1.58-.67-.97-1.73-2.1-1.8-3-.15-2.09,1.58-4.59,1.21-5.19-.37-.61-1.73-.76-5.1.46-3.49,1.15-18.56-1.91-18.56-1.91h.01Z"/>
          <path class="cls-16" d="m100.15,203.13s-1.73-1.64-1.12-9.6c.73-.01,1.47.06,2.19.21,0,0,.94,6.17-1.06,9.38Z"/>
          <path class="cls-23" d="m87.82,169.97c.24-.18.47-.38.67-.6-.6,1.12-3.37,5.62-1.12,12.69,2.25,7.04,7.9,12.3,14.85,12.54,6.95.24,10.61-3.16,14.79-8.26,1.64-2.03,3.52-4.59,5.19-6.32,2.49-2.7,4.43-3.46,4.43-6.07,0-5.34-5.47-7.75-13.51-10.14s-15.31-2.1-19.07-.46c-3.67,1.79-5.25,3.67-6.23,6.62h0Z"/>
          <path class="cls-19" d="m113.67,205.53l.6-.3s.15-2.4,1.12-2.34c.97.15,1.43,1.43,1.34,1.88-.06.45-.3,1.22-1.28,1.12-1.28.03-1.79-.36-1.79-.36h0Z"/>
          <path class="cls-11" d="m110.96,195.33s.6-.21,1.34.52c.6,0,3.22-.3,4.04.21.82.52,1.06.97,1.06.97,0,0-3.07.67-4.74,0-1.7-.58-1.7-1.7-1.7-1.7Z"/>
          <path class="cls-17" d="m124.48,195.78c0-.15-1.64-1.28-3.37-1.64-.3-.06-.37.15-.6.15-.15-.06-.21-.52-.21-.52l-.98.52s-.15.21.36.6c.45.36,1.22.67,1.43,1.28.21.61.21.82.3.91.06.06,1.12,0,1.64-.3s1.49-.8,1.43-1h0Z"/>
          <path class="cls-10" d="m109.14,201.95s.3-2.09,2.34-2.19c2.09-.15,2.49,1.88,2.49,1.88l-1.22,1.22s-.91-1.31-3.6-.91h-.01Z"/>
          <path class="cls-13" d="m122.35,192.93s-1.13,1.22-3.61,1.58c-.21-.3-.67-.91,0-1.88.67-.97,1.43-1.28,2.19-.97.68.11,1.24.61,1.43,1.28Z"/>
          <path class="cls-17" d="m126.94,194.41c.06-.3-.15-.36,0-.52.15-.15.97-.45,1.12-.3.06.06,0,.3,0,.6s0,.6-.15.82c-.21.3-.82.46-1.12.37-.3-.09-.36-.52-.36-.6.15-.06.51-.21.51-.36Zm5.18-3.28c0-.15.52-.46.82-.46.45,0,.45.36.52.46.15.06.15-.06.3.21.15.27.37.76.21,1.06-.15.3-.76.51-.91.45-.21-.15-.88-1.52-.94-1.73Z"/>
          <path class="cls-21" d="m121.68,195.11s.67.15,1.58.91c-.3.21-.76.45-.76.45,0,0-.06-.7-.82-1.37h0Z"/>
          <path class="cls-14" d="m120.2,188.43c-.15-.15.45-.51.82-.45.36.06.52.3.91.36.39.06.46-.15.6-.3.14-.15.67-.06.76,0,.06.07.11.14.15.21.01-.23.12-.45.3-.6.24-.17.54-.23.82-.15.06.21.36.97.3,1.12-.06.15-.97.37-1.12.21.15.37.82,1.12.91,1.28.09.15-.67.52-.97.46-.42-.03-3.04-1.55-3.49-2.13h0Zm3.98-5.04c-.06-.15-.16-.28-.3-.36-.21-.06-.91,0-.91.36s.6,2.4,1.28,3.46c.76,1.06,1.28,1.94,1.79,2.19.34.15.73.02.91-.3.06-.15.21-1.28.15-3.92-.06-2.64-.15-5.19-.3-5.34s-.76-.15-.97.15-1.58,3.31-1.64,3.77h0Z"/>
          <path class="cls-13" d="m121.47,198.94s-1.06-.67-2.1-.21c-.97.46-.91,2.25-.91,2.25.44.17.94.12,1.34-.15.67-.45,1.52-1.21,1.67-1.88h0Z"/>
          <path class="cls-17" d="m123.48,201.34c-.06-.6-.6-.6-.6-.91.08-.31.35-.52.67-.52.3,0,.6.36.97.6.36.21.91.6.97,1.06.06.46-.6,1.73-1.34,1.73s-.52-1.37-.67-1.97h0Zm5.86-.82s-1.22.36-1.12,0c.09-.36.37-.45.76-.45.2-.21.47-.34.76-.37.17,0,.33.05.45.15,0,0,.82-.36,1.06-.15.24.21.06.21.21.46.19.27.32.58.37.91,0,.24-.91.76-1.64.67-.85-.18-.7-1.06-.85-1.22Zm7.07-1.37s.36.21.06.46c-.21.21-1.28.6-2.19.67-.91,0-1.73.15-1.73-.15s.76-.91,1.21-1.06c.18-.23.46-.37.76-.36.36,0,1.79-.15,2.19-.21.36-.06.67.15.45.45-.09.21-.76.21-.76.21h0Zm2.1-9.38s-.46.97-.97.97c-.52-.06-.52-.21-.52-.36,0-.21.52-.76.45-.91-.15,0-.52,0-.45-.36,0-.3.52-.67.97-.6.34-.28.77-.44,1.22-.45.52,0,.97.15.97.45s-.6.97-.82,1.12c-.24.24-.55.4-.85.15h0Zm-6.92,17.95s-.6.06-.6.36c0,.15.15.15.36.06.12,0,.25-.03.36-.06.06.06.06.36.52.36.37-.05.74-.17,1.06-.36.36-.15.67-.3.67-.6-.15-.52-.46-.76-.91-.76-.23-.01-.47.04-.67.15,0,0-.15-.3-.67,0s-.46.3-.3.46c.27.24.18.4.18.4h0Zm-3.43,3.16c0-.15.76-.46.97-.36.21.06.82,1.21.82,1.34,0,.15-.76.52-1.06.52s-.82-.52-.82-.6c0-.06.36-.15.36-.21.09-.15-.27-.52-.27-.67h0Zm-2.4-4.43c.15-.06.15-.21.36-.36.13-.09.3-.11.46-.06.11-.19.3-.33.52-.37.36-.06.67,0,.6.15,0,.46.3.76.3,1.12s-.21.82-.97,1.12c-.76.21-1.79.21-1.94.15-.15-.06-.3-.67-.15-.97.15-.3.58-.64.82-.79h0Z"/>
          <path class="cls-21" d="m126.72,206.65s-.52.3-.52.46c-.05.15-.07.3-.06.45,0,.09.67-.06.76-.15.03-.06-.18-.6-.18-.76Z"/>
          <path class="cls-14" d="m122.2,205.22c.3.06.82,0,1.21.15.3.15.52.46.21.82-.3.36-.6.91-1.28.82-.76-.06-1.49-.45-1.49-.76-.03-.39.11-.77.36-1.06.3-.24.45-.09.97.03h0Z"/>
          <path class="cls-13" d="m121.84,205.53s-.97.76-1.22,1.12c-.3.36-1.79,2.25-2.25,2.64.15-.27.32-.52.51-.76-.6.38-1.05.96-1.28,1.64-.36,1.12,2.04,1.73,3.61,2.19,1.58.46,2.19.6,2.19.6-.58-.87-1.08-1.8-1.49-2.76-.6-1.43-.91-1.58-.52-2.25.3-.67.76-1.12.76-1.64-.18-.48-.33-.78-.33-.78Z"/>
          <path class="cls-23" d="m87.22,207.93c.22.04.45.04.67,0,.45-.06,5.19-1.8,10.14-1.49,3.71.22,7.38.83,10.96,1.8,6.23,1.64,13.97,4.89,18.98,6.74,1.34.51,2.64,1.43,3.6,1.79,3.83,1.49,3.98,1.49,6.23,1.88,2.64.36,5.34-.52,8.17-1.12,3.46-.76,9.38-1.12,14.58-1.88,1.68-.23,3.34-.61,4.95-1.12,0,0-4.13,4.13-14.03,5.62-4,.61-8.07.66-12.09.15-3.16-.3-5.25-.76-6.83-1.22-1.79-.52-5.47-1.88-9.99-3-3.16-.82-6.68-1.43-10.72-2.19-9.96-1.82-20.77-3.92-24.62-5.95h0Z"/>
          <line class="cls-1" x1="82.05" y1="169.42" x2="56.76" y2="145.8"/>
          <path class="cls-40" d="m76.04,189.16c-2.4,2.03-4.95,3.98-7.44,5.86l-7.5,5.76c-2.55,1.88-5.04,3.83-7.59,5.71-2.55,1.88-5.1,3.67-7.81,5.4,2.4-2.03,4.95-3.92,7.5-5.77,2.55-1.85,5.19-3.67,7.66-5.55l7.5-5.77c2.58-1.88,5.07-3.83,7.68-5.65h0Zm-13.27,21.26s2.7-2.25,6.07-5.41c4.19-3.92,9.32-8.93,10.96-9.84l-17.04,15.24h0Z"/>
          <path class="cls-40" d="m62.77,210.42c1.34-1.34,2.76-2.64,4.19-3.92l2.19-1.88c.67-.6,1.43-1.28,2.1-1.94,1.34-1.34,2.64-2.76,3.98-4.13.66-.69,1.36-1.34,2.1-1.94.37-.32.78-.6,1.21-.82.37-.21.76-.6,1.28-.67-.3.46-.67.67-.97,1.06-.36.3-.67.67-.97.97-.67.67-1.43,1.28-2.1,1.88-1.43,1.22-2.91,2.4-4.34,3.67-1.43,1.27-2.76,2.64-4.19,3.92-1.55,1.31-2.97,2.58-4.46,3.8h0Zm18.16-12.15s-9.9,9.69-11.93,11.27l11.93-11.27Z"/>
          <path class="cls-40" d="m80.93,198.27c-.89,1.03-1.85,2-2.86,2.91l-3,2.85c-.97.97-1.88,1.94-2.91,2.91-1.06.91-2.03,1.8-3.16,2.64l2.91-2.85c.97-.97,2.04-1.79,3.07-2.76l2.91-2.85c1-1,1.97-1.97,3.04-2.85Zm.45,5.25c-.91,2.55-1.99,5.03-3.22,7.44-2.55,5.1-6.38,11.48-8.05,14.73l11.27-22.17h0Z"/>
          <path class="cls-40" d="m81.38,203.53c0,1.12-.3,2.1-.67,3.07-.36.97-.76,1.92-1.21,2.85-.46.91-.97,1.88-1.49,2.76s-1.12,1.79-1.58,2.7l-3.07,5.4c-1.06,1.8-2.1,3.61-3.22,5.34.76-1.94,1.79-3.77,2.76-5.56,1.06-1.8,2.03-3.6,3-5.47.47-.93.9-1.88,1.28-2.85.45-.97.91-1.88,1.28-2.76.45-.97.82-1.88,1.28-2.76.51-.94.94-1.85,1.64-2.73h0Z"/>
          <path class="cls-26" d="m92.2,228.43s-3,3.98-2.7,9.02c.82-2.64,1.85-6.68,2.7-9.02Zm2.85,3.99s-1.06,10.81-1.94,16.12c1.25-6.14,1.49-5.63,1.94-16.12Zm19.89,16.76s-4.49,13.21-4.59,16.88c.97-3.78,2.85-11.49,4.59-16.89h0Z"/>
          <path class="cls-57" d="m125.45,227.61s7.29,12.02,12.76,22.29c-1.48-5.16-4.88-14.64-12.76-22.29Z"/>
          <path class="cls-87" d="m145.04,245.31c4,7.07,7.61,14.36,10.81,21.83-.61-5.16-2.25-14-10.81-21.83Z"/>
          <path class="cls-83" d="m202.61,263.04c1.21-.76,3.61-4.89,5.71-5.92,2.09-1.06,3.67-1.28,5.56-3.37,1.88-2.19,2.4-3.52,6.53-5.25,5.77-2.49,1.8-5.71,1.8-5.71.64-.62,1.32-1.2,2.03-1.73,1.49-1.12,3.22-2.49,3.07-4.89-.21-4.04-.97-9.9-4.28-13.3,3.22-.67,9.38-1.12,13.21-2.09,4.43-1.12,6.47-2.7,6.47-2.7,0,0-2.55-4.34,1.58-8.71s7.5-6.98,9.99-11.87c-2.85-.36-7.21-1.88-18.31,2.34.6.28,1.18.61,1.73.97,0,0-6.83,1.88-9.32,3.98-4.34,3.67-4.89,6.68-9.6,8.93-4.71,2.25-9.44,1.64-13.36,3.46s-4.49,3.37-5.92,4.04c.3.36-.06.97.52,1.49-.36.52-2.49,3.98-4.65,3.98.21.82,2.03,1.43,2.03,1.43,0,0-1.34.97-4.74,1.22,1.73,1.8,3.37,3.77,7.9,6.62-.36.76-1.88,1.88-1.28,3.31.67,1.43,2.4,3.37,9.32,4.95-3.52.15-7.65.97-13.21.21-5.56-.67-6.47-1.06-9.9-.21.36.36,1.34.36,2.19,1.34-.91.06-6.62-.67-8.56,1.88-2.03,2.64-2.91,6.98-2.76,9.9-1.06.52-2.1,1.43-1.58,3.31.52,1.88,3.22,2.49,4.95,3.67,1.73,1.28,1.88,1.73,3.52,1.43,1.73-.36,4.28-2.09,5.77-2.09s2.55,1.12,2.55,1.12c0,0,4.04-1.94,4.43-1.58.36.36.06,2.7.45,3.07.4.27,4.95-2.43,6.17-3.19h-.01Z"/>
          <path class="cls-5" d="m290.89,141.51c-4.74-12.25-11.24-22.01-18.3-29.75-17.07-18.7-41.92-28.34-67.23-28.34h-114.22l.52,49.92h26.66v111.48h-27.18v49.83h130.16c31.37,0,56.51-31.52,56.51-31.52,40.27-57.15,13.09-121.62,13.09-121.62h0Zm-68.91,88.03s-10.21,14.73-21.32,14.73h-22.22l-.53-110.81h28.52s13.21,2.76,22.44,28.91c0,0,12.24,37.43-6.89,67.17Z"/>
        </g>
      </g>
    </g>
  </g>
</svg>