<?xml version="1.0" encoding="UTF-8"?>
<svg id="Layer_2" data-name="Layer 2" xmlns="http://www.w3.org/2000/svg" viewBox="0 0 375.35 375.35">
  <defs>
    <style>
      .cls-1 {
        fill: #fff;
      }

      .cls-2 {
        fill: #345d9d;
      }
    </style>
  </defs>
  <g id="Layer_1-2" data-name="Layer 1">
    <g id="ltc">
      <circle class="cls-2" cx="187.67" cy="187.67" r="187.67"/>
      <path class="cls-1" d="m190.85,194.03l-19.54,65.89h104.52c2.91-.1,5.35,2.17,5.45,5.08,0,0,0,0,0,0v1.73l-9.09,31.35c-.83,3.05-3.66,5.13-6.82,5H105.42l26.81-91.34-29.99,9.09,6.82-20.9,29.99-9.09,37.72-128.14c.85-3.03,3.67-5.1,6.82-5h40.44c2.91-.1,5.35,2.17,5.45,5.08,0,0,0,0,0,0v1.73l-31.81,108.15,29.99-9.09-6.36,21.81-30.45,8.63Z"/>
    </g>
  </g>
</svg>