<?xml version="1.0" encoding="UTF-8"?>
<svg id="Layer_2" data-name="Layer 2" xmlns="http://www.w3.org/2000/svg" xmlns:xlink="http://www.w3.org/1999/xlink" viewBox="0 0 375.35 375.35">
  <defs>
    <style>
      .cls-1 {
        fill: url(#linear-gradient);
      }

      .cls-2 {
        fill: #fff;
      }
    </style>
    <linearGradient id="linear-gradient" x1="54.97" y1="54.97" x2="320.38" y2="320.38" gradientUnits="userSpaceOnUse">
      <stop offset="0" stop-color="#9630cf"/>
      <stop offset=".5" stop-color="#8638db"/>
      <stop offset="1" stop-color="#7b3fe4"/>
    </linearGradient>
  </defs>
  <g id="Layer_1-2" data-name="Layer 1">
    <g id="matic">
      <circle class="cls-1" cx="187.67" cy="187.67" r="187.67"/>
      <path class="cls-2" d="m76,176.16c-4.98,3.11-7.47,8.09-7.47,13.06v59.1c0,5.6,3.11,10.58,7.47,13.06l50.39,29.24c4.98,2.49,10.58,2.49,14.93,0l50.39-29.24c4.98-3.11,7.47-8.09,7.47-13.06v-20.53l-23.64-13.69v19.91c0,5.6-3.11,10.58-7.47,13.06l-26.75,15.55c-4.98,2.49-10.58,2.49-14.93,0l-26.13-15.55c-4.98-3.11-7.47-8.09-7.47-13.06v-31.11c0-5.6,3.11-10.58,7.47-13.06l26.75-15.55c4.98-2.49,10.58-2.49,14.93,0l34.22,19.91,23.64,13.69,34.22,19.91c4.98,2.49,10.58,2.49,14.93,0l50.39-29.24c4.98-3.11,7.47-8.09,7.47-13.06v-58.48c0-4.98-2.49-9.95-7.47-12.44l-51.01-29.86c-4.98-2.49-10.58-2.49-14.93,0l-49.77,29.24c-4.98,3.11-7.47,8.09-7.47,13.06v21.15l23.64,13.69v-20.53c0-5.6,3.11-10.58,7.47-13.06l26.75-16.18c4.98-2.49,10.58-2.49,14.93,0l26.75,15.55c4.98,3.11,7.47,8.09,7.47,13.06v31.11c0,5.6-3.11,10.58-7.47,13.06l-26.75,16.18c-4.98,2.49-10.58,2.49-14.93,0l-34.22-20.53-23.64-13.06-34.84-20.53c-4.98-2.49-10.58-2.49-14.93,0l-50.39,29.24Z"/>
    </g>
  </g>
</svg>