<?xml version="1.0" encoding="UTF-8"?>
<svg id="Layer_2" data-name="Layer 2" xmlns="http://www.w3.org/2000/svg" xmlns:xlink="http://www.w3.org/1999/xlink" viewBox="0 0 375.35 375.35">
  <defs>
    <style>
      .cls-1 {
        fill: url(#linear-gradient);
      }

      .cls-2 {
        fill: url(#linear-gradient-3);
      }

      .cls-3 {
        fill: url(#linear-gradient-2);
      }
    </style>
    <linearGradient id="linear-gradient" x1="286.15" y1="4756.19" x2="152.65" y2="5011.9" gradientTransform="translate(0 -4686)" gradientUnits="userSpaceOnUse">
      <stop offset="0" stop-color="#00ffa3"/>
      <stop offset="1" stop-color="#dc1fff"/>
    </linearGradient>
    <linearGradient id="linear-gradient-2" x1="227.78" y1="4725.72" x2="94.28" y2="4981.43" xlink:href="#linear-gradient"/>
    <linearGradient id="linear-gradient-3" x1="256.77" y1="4740.86" x2="123.27" y2="4996.57" xlink:href="#linear-gradient"/>
  </defs>
  <g id="Layer_1-2" data-name="Layer 1">
    <g id="sol">
      <circle cx="187.67" cy="187.67" r="187.67"/>
      <g>
        <path class="cls-1" d="m106.08,237.54c1.46-1.46,3.46-2.31,5.59-2.31h192.9c3.52,0,5.29,4.25,2.8,6.75l-38.11,38.11c-1.46,1.46-3.46,2.31-5.59,2.31H70.77c-3.52,0-5.29-4.25-2.8-6.75l38.11-38.11Z"/>
        <path class="cls-3" d="m106.08,95.27c1.52-1.46,3.52-2.31,5.59-2.31h192.9c3.52,0,5.29,4.25,2.8,6.75l-38.11,38.11c-1.46,1.46-3.46,2.31-5.59,2.31H70.77c-3.52,0-5.29-4.25-2.8-6.75l38.11-38.11Z"/>
        <path class="cls-2" d="m269.26,165.95c-1.46-1.46-3.46-2.31-5.59-2.31H70.77c-3.52,0-5.29,4.25-2.8,6.75l38.11,38.11c1.46,1.46,3.46,2.31,5.59,2.31h192.9c3.52,0,5.29-4.25,2.8-6.75l-38.11-38.11Z"/>
      </g>
    </g>
  </g>
</svg>