<?xml version="1.0" encoding="UTF-8"?>
<svg id="Layer_2" data-name="Layer 2" xmlns="http://www.w3.org/2000/svg" viewBox="0 0 375.35 375.35">
  <defs>
    <style>
      .cls-1 {
        fill: #fff;
      }

      .cls-2 {
        fill: #ff0013;
      }
    </style>
  </defs>
  <g id="Layer_1-2" data-name="Layer 1">
    <g id="tron">
      <circle class="cls-2" cx="187.67" cy="187.67" r="187.67"/>
      <path class="cls-1" d="m256.05,115.34l-177.84-32.73c-4.56-.84-8.26,3.67-6.55,7.98l92.37,232.48c1.66,4.17,7.19,5.04,10.04,1.56l129.54-157.83c1.96-2.39,1.74-5.88-.49-8.01l-44.07-41.92c-.83-.79-1.87-1.32-3-1.53Zm-1.34,15.75l29.08,27.63-79.53,14.41,50.45-42.03Zm-67.71,39.13l-83.82-69.51,136.99,25.2-53.17,44.31Zm-5.97,12.31l-13.66,112.97L93.67,110.07l87.36,72.46Zm12.64,5.98l88.05-15.94-100.99,123.06,12.94-107.12Z"/>
    </g>
  </g>
</svg>