<?xml version="1.0" encoding="UTF-8"?>
<svg id="Layer_2" data-name="Layer 2" xmlns="http://www.w3.org/2000/svg" viewBox="0 0 375.35 375.35">
  <defs>
    <style>
      .cls-1 {
        fill: #fff;
      }

      .cls-2 {
        fill: #2775ca;
      }
    </style>
  </defs>
  <g id="Layer_1-2" data-name="Layer 1">
    <g id="usdc">
      <circle class="cls-2" cx="187.67" cy="187.67" r="187.67"/>
      <g>
        <path class="cls-1" d="m239.28,217.39c0-27.37-16.42-36.75-49.26-40.66-23.46-3.13-28.15-9.38-28.15-20.33s7.82-17.98,23.46-17.98c14.08,0,21.9,4.69,25.8,16.42.78,2.35,3.13,3.91,5.47,3.91h12.51c3.13,0,5.47-2.35,5.47-5.47v-.78c-3.13-17.2-17.2-30.5-35.19-32.06v-18.77c0-3.13-2.35-5.47-6.26-6.26h-11.73c-3.13,0-5.47,2.35-6.26,6.26v17.98c-23.46,3.13-38.32,18.77-38.32,38.32,0,25.8,15.64,35.97,48.48,39.88,21.9,3.91,28.93,8.6,28.93,21.11s-10.95,21.11-25.8,21.11c-20.33,0-27.37-8.6-29.72-20.33-.78-3.13-3.13-4.69-5.47-4.69h-13.29c-3.13,0-5.47,2.35-5.47,5.47v.78c3.13,19.55,15.64,33.62,41.44,37.53v18.77c0,3.13,2.35,5.47,6.26,6.26h11.73c3.13,0,5.47-2.35,6.26-6.26v-18.77c23.46-3.91,39.1-20.33,39.1-41.45h0Z"/>
        <path class="cls-1" d="m147.79,299.49c-60.99-21.89-92.27-89.93-69.59-150.14,11.73-32.84,37.53-57.87,69.59-69.59,3.13-1.56,4.69-3.91,4.69-7.82v-10.95c0-3.13-1.56-5.47-4.69-6.26-.78,0-2.35,0-3.13.78-74.29,23.46-114.95,102.44-91.49,176.73,14.08,43.79,47.7,77.41,91.49,91.49,3.13,1.56,6.26,0,7.04-3.13.78-.78.78-1.56.78-3.13v-10.95c0-2.35-2.35-5.47-4.69-7.04ZM230.68,55.52c-3.13-1.56-6.26,0-7.04,3.13-.78.78-.78,1.56-.78,3.13v10.95c0,3.13,2.35,6.26,4.69,7.82,60.99,21.89,92.27,89.93,69.59,150.14-11.73,32.84-37.53,57.87-69.59,69.59-3.13,1.56-4.69,3.91-4.69,7.82v10.95c0,3.13,1.56,5.47,4.69,6.26.78,0,2.35,0,3.13-.78,74.29-23.46,114.95-102.44,91.49-176.73-14.08-44.57-48.48-78.2-91.49-92.27h0Z"/>
      </g>
    </g>
  </g>
</svg>