<?xml version="1.0" encoding="UTF-8"?>
<svg id="Layer_2" data-name="Layer 2" xmlns="http://www.w3.org/2000/svg" viewBox="0 0 375.35 375.35">
  <defs>
    <style>
      .cls-1 {
        fill: #fff;
      }

      .cls-2 {
        fill: #26a17b;
      }
    </style>
  </defs>
  <g id="Layer_1-2" data-name="Layer 1">
    <g id="usdt">
      <circle class="cls-2" cx="187.67" cy="187.67" r="187.67"/>
      <path class="cls-1" d="m210.78,204.99v-.03c-1.3.09-8,.48-22.9.48-11.92,0-20.28-.33-23.23-.48v.03c-45.83-2.02-80.02-9.99-80.02-19.55s34.22-17.53,80.02-19.55v31.17c2.99.21,11.59.72,23.44.72,14.24,0,21.36-.6,22.69-.72v-31.14c45.74,2.05,79.84,10.02,79.84,19.55s-34.13,17.5-79.84,19.55m0-42.33v-27.88h63.81v-42.51H100.87v42.51h63.81v27.88c-51.87,2.38-90.85,12.64-90.85,24.95s39.01,22.57,90.85,24.98v89.37h46.13v-89.37c51.78-2.38,90.7-12.64,90.7-24.95s-38.92-22.57-90.7-24.95"/>
    </g>
  </g>
</svg>